<?xml version="1.0" encoding="utf-8"?>
<!-- Generator: Adobe Illustrator 16.0.0, SVG Export Plug-In . SVG Version: 6.00 Build 0)  -->
<!DOCTYPE svg PUBLIC "-//W3C//DTD SVG 1.1//EN" "http://www.w3.org/Graphics/SVG/1.1/DTD/svg11.dtd">
<svg version="1.1" id="Layer_1" xmlns="http://www.w3.org/2000/svg" xmlns:xlink="http://www.w3.org/1999/xlink" x="0px" y="0px"
	 width="181px" height="200px" viewBox="159.5 0 181 200" enable-background="new 159.5 0 181 200" xml:space="preserve">
<path fill="#5BBF6D" d="M335.223,92.329c-5.413-18.562-18.897-33.698-36.713-41.209c-2.217-0.905-4.49-1.667-6.804-2.282
	c3.315-1.642,6.425-3.671,9.263-6.046c11.429-9.303,16.367-24.427,12.63-38.683c-0.417-1.544-1.673-2.719-3.241-3.032
	c-15.336-3.259-31.318,0.688-43.373,10.711c-5.918,5.035-10.232,11.691-12.412,19.148c-1.6-8.158-5.317-15.751-10.778-22.02
	c-1.525-1.755-4.185-1.942-5.941-0.417c-1.755,1.525-1.942,4.185-0.417,5.94l0,0c8.204,9.962,11.623,23.023,9.355,35.728h-0.051
	l-16.975-2.711c-10.893-1.751-22.06-0.202-32.065,4.446l-0.27,0.126c-15.289,7.11-26.896,20.305-31.997,36.376
	c-2.369,7.881-3.543,16.072-3.486,24.301c0,45.47,49.461,80.937,49.958,81.282c5.588,3.93,12.257,6.031,19.089,6.012
	c6.172-0.332,12.236-1.758,17.91-4.21c0.705-0.286,1.493-0.286,2.198,0c5.672,2.446,11.732,3.872,17.901,4.21
	c6.827,0.02,13.491-2.08,19.071-6.012c5.111-3.537,49.976-35.82,49.976-81.273C338.031,105.823,337.079,98.966,335.223,92.329z
	 M272.49,18.163c9.342-7.745,21.555-11.117,33.547-9.262c1.637,10.413-2.4,20.91-10.592,27.543
	c-9.35,7.73-21.557,11.101-33.547,9.262C260.262,35.292,264.299,24.796,272.49,18.163z M280.911,183.598
	c-3.472,2.461-7.625,3.779-11.882,3.771c-4.558-0.312-9.025-1.422-13.203-3.275c-1.848-0.738-3.818-1.119-5.81-1.119
	c-1.982-0.002-3.946,0.379-5.785,1.119c-4.179,1.854-8.65,2.963-13.211,3.275c-4.276,0.004-8.447-1.326-11.932-3.806
	c-11.544-7.957-44.51-38.128-44.51-70.857c-0.05-6.936,0.932-13.84,2.913-20.486c4.022-12.698,13.186-23.126,25.261-28.747
	l0.244-0.118c7.73-3.57,16.346-4.765,24.756-3.436l16.992,2.72c3.502,0.558,7.072,0.538,10.568-0.059l14.777-2.526
	c8.044-1.366,16.312-0.387,23.813,2.821c14.164,6.039,24.869,18.119,29.159,32.907c1.526,5.51,2.313,11.199,2.341,16.916
	c0.017,39.711-42.691,69.637-44.519,70.866L280.911,183.598z"/>
<path fill="#5BBF6D" d="M283.748,117.16c-3.348-0.945-6.833,0.977-7.822,4.312c-3.357,11.55-13.898,19.523-25.926,19.611
	c-12.067,0.026-22.672-7.993-25.935-19.611c-0.88-3.374-4.33-5.396-7.705-4.517c-3.375,0.881-5.397,4.33-4.517,7.705
	c0.029,0.111,0.061,0.223,0.096,0.332c5.991,21.02,27.888,33.203,48.908,27.212c13.167-3.753,23.459-14.045,27.213-27.212
	C289.025,121.639,287.098,118.138,283.748,117.16z"/>
</svg>
