<svg xmlns="http://www.w3.org/2000/svg" viewBox="0 0 24 24"><defs><style>.a{fill:none;}.b{fill:#0970e6;}</style></defs><title>ic_nav_pains_patisseries_vB</title><rect class="a" width="24" height="24"/><path class="b" d="M12.00024,4.62646c-5.40527,0-11.45019,4.041-11.45019,9.4502,0,2.6123,1.43115,4.38379,4.25439,5.2627a.752.752,0,0,0,.22315.03418H18.97241a.752.752,0,0,0,.22315-.03418c2.82275-.87891,4.25439-2.6504,4.25439-5.2627C23.45,8.66748,17.405,4.62646,12.00024,4.62646Zm6.85547,13.24708H5.14429C3.03394,17.187,2.05005,15.978,2.05005,14.07666c0-3.45056,3.02258-6.236,6.53137-7.38251l-1.86633,5.738a.5.5,0,1,0,.95117.30859L9.7312,6.39209l.00067-.00574a10.71042,10.71042,0,0,1,2.26837-.25989c.07569,0,.15247.00837.2284.01014l-1.95984,6.025a.5.5,0,1,0,.95117.30859l2.0351-6.25646a11.54386,11.54386,0,0,1,2.4057.56256l-1.65955,5.10211a.5.5,0,1,0,.95117.30859L16.591,7.14917c2.98255,1.336,5.359,3.86926,5.359,6.92749C21.95,15.978,20.96606,17.187,18.85571,17.87354Z"/></svg>