<svg xmlns="http://www.w3.org/2000/svg" viewBox="0 0 23.5 17.96">
  <path fill="#0970e6" d="M22.857,10.9a.75.75,0,1,0-.214-1.484l-1.372.2c-.445-2.769-2.133-8.386-2.206-8.621A1.3,1.3,0,0,0,16.756.528l-2.4,3.236H9.141L6.744.528a1.292,1.292,0,0,0-1.3-.5,1.272,1.272,0,0,0-1,.927c-.081.267-1.759,5.852-2.213,8.658l-1.375-.2A.75.75,0,1,0,.643,10.9l1.521.22a6.184,6.184,0,0,0,.941,2.643l-2.234.655a.75.75,0,0,0,.211,1.47.739.739,0,0,0,.211-.031l2.824-.828a10.747,10.747,0,0,0,7.628,2.931h.005c.013,0,.023-.007.036-.008a.394.394,0,0,0,.047.01,10.61,10.61,0,0,0,7.548-2.933l2.826.828a.739.739,0,0,0,.211.031.75.75,0,0,0,.211-1.47l-2.241-.657a6.28,6.28,0,0,0,.945-2.641ZM11.75,12.51a1.7,1.7,0,0,1-1.842-1.489v-.377h3.684v.377A1.7,1.7,0,0,1,11.75,12.51Zm7.153.813-2.183-.64a.75.75,0,1,0-.422,1.439l1.414.415a9.49,9.49,0,0,1-5.462,1.9V13.466a2.609,2.609,0,0,0,2.342-2.445v-.377a1,1,0,0,0-1-1H9.908a1,1,0,0,0-1,1v.377a2.609,2.609,0,0,0,2.342,2.445v2.978a9.418,9.418,0,0,1-5.475-1.9L7.2,14.122a.75.75,0,1,0-.422-1.439l-2.193.643A4.895,4.895,0,0,1,3.7,11.34l3.109.448a.654.654,0,0,0,.108.008A.75.75,0,0,0,7.027,10.3L3.71,9.825C4.04,7.8,5.184,3.733,5.775,1.74l2.219,3a1.308,1.308,0,0,0,1.046.528h5.42a1.3,1.3,0,0,0,1.045-.528l2.22-3c.583,1.961,1.744,6.08,2.069,8.085l-3.32.479A.75.75,0,0,0,16.58,11.8a.782.782,0,0,0,.107-.008l3.1-.447A4.945,4.945,0,0,1,18.9,13.323Z"/>
</svg>