<svg xmlns="http://www.w3.org/2000/svg" viewBox="0 0 22.5 17.25">
  <path fill="#0970e6" d="M21.75,5a.75.75,0,0,0,.75-.75V.75A.75.75,0,0,0,21.75,0H5.444A5.45,5.45,0,0,0,0,5.444v6.362A5.45,5.45,0,0,0,5.444,17.25H21.75a.75.75,0,0,0,.75-.75v-7a.75.75,0,0,0-.75-.75,1.875,1.875,0,0,1,0-3.75ZM1.5,11.806V5.444A3.948,3.948,0,0,1,5.444,1.5H6.935A4.978,4.978,0,0,0,4.807,5.545v6.161A4.976,4.976,0,0,0,6.935,15.75H5.444A3.948,3.948,0,0,1,1.5,11.806ZM21,10.166V15.75H10.02a4.136,4.136,0,0,1-4.213-4.044V5.545A4.136,4.136,0,0,1,10.02,1.5H21V3.584a3.375,3.375,0,0,0,0,6.582Z"/>
  <path fill="#0970e6" d="M15.188,8.454a2.688,2.688,0,1,0,2.687,2.688A2.691,2.691,0,0,0,15.188,8.454Zm0,4.375a1.688,1.688,0,1,1,1.687-1.687A1.689,1.689,0,0,1,15.188,12.829Z"/>
  <path fill="#0970e6" d="M13.482,5.762a2.031,2.031,0,1,0-2.031,2.031A2.034,2.034,0,0,0,13.482,5.762ZM11.451,6.793a1.032,1.032,0,1,1,1.031-1.031A1.032,1.032,0,0,1,11.451,6.793Z"/>
</svg>