<svg xmlns="http://www.w3.org/2000/svg" viewBox="0 0 17.987 23.611">
  <path fill="#0970e6" d="M2.243,10.25,2.133,16.6A1.19,1.19,0,0,0,3.3,17.816l10.978.192h.02a1.191,1.191,0,0,0,1.19-1.17l.112-6.355a4.728,4.728,0,0,0-2.26-8.834h0a5.109,5.109,0,0,0-.607.028A4.958,4.958,0,0,0,9.1,0,5.034,5.034,0,0,0,5.416,1.549,4.9,4.9,0,0,0,4.81,1.5a4.728,4.728,0,0,0-2.567,8.75Zm1.4,6.071L3.67,14.5l10.358.181L14,16.5ZM2.486,3.905a3.164,3.164,0,0,1,2.3-.9,3.288,3.288,0,0,1,.715.092.943.943,0,0,0,.183.022.784.784,0,0,0,.6-.281,3.464,3.464,0,0,1,5.525.082.745.745,0,0,0,.59.3l.116,0a.556.556,0,0,0,.147-.013,3,3,0,0,1,.653-.054,3.228,3.228,0,0,1,1.241,6.183.751.751,0,0,0-.447.673l-.065,3.675L3.687,13.5l.064-3.675a.749.749,0,0,0-.424-.688A3.24,3.24,0,0,1,1.5,6.171,3.2,3.2,0,0,1,2.486,3.905Z"/>
  <path fill="#0970e6" d="M8.909,11.126h.009a.5.5,0,0,0,.5-.492l.05-2.865a.5.5,0,1,0-1-.018l-.05,2.866A.5.5,0,0,0,8.909,11.126Z"/>
  <path fill="#0970e6" d="M11.444,11.092a.5.5,0,0,0,.692-.143,10.846,10.846,0,0,0,1.352-2.982.5.5,0,0,0-.962-.274A9.85,9.85,0,0,1,11.3,10.4.5.5,0,0,0,11.444,11.092Z"/>
  <path fill="#0970e6" d="M5.69,10.836a.5.5,0,1,0,.854-.519,9.827,9.827,0,0,1-1.13-2.748.5.5,0,1,0-.97.24A10.784,10.784,0,0,0,5.69,10.836Z"/>
  <path fill="#0970e6" d="M15.83,21.782a.912.912,0,0,1-.47.314c-.37.079-.852-.169-1.477-.757l-.22-.209a4.613,4.613,0,0,0-2.136-1.385,2.606,2.606,0,0,0-2.313.667.75.75,0,1,0,1.024,1.1,1.112,1.112,0,0,1,.975-.3,3.454,3.454,0,0,1,1.411,1l.231.22a3.642,3.642,0,0,0,2.359,1.179,2.266,2.266,0,0,0,.457-.047,2.362,2.362,0,0,0,1.3-.807.75.75,0,0,0-1.139-.975Z"/>
  <path fill="#0970e6" d="M5.992,19.649A4.6,4.6,0,0,0,3.81,20.957l-.228.2c-.644.566-1.139.8-1.5.705a.912.912,0,0,1-.46-.331.75.75,0,1,0-1.172.936,2.368,2.368,0,0,0,1.269.85,2.16,2.16,0,0,0,.533.066,3.715,3.715,0,0,0,2.321-1.1l.239-.212a3.449,3.449,0,0,1,1.445-.949,1.115,1.115,0,0,1,.963.329A.75.75,0,1,0,8.28,20.4,2.593,2.593,0,0,0,5.992,19.649Z"/>
</svg>