<svg xmlns="http://www.w3.org/2000/svg" viewBox="0 0 24 24"><defs><style>.a{fill:none;}.b{fill:#0970e6;}</style></defs><title>ic_nav_viandes_poissons_vB</title><rect class="a" width="24" height="24"/><path class="b" d="M22.48935,3.14578a3.13628,3.13628,0,0,0-.93359-.64343A3.17232,3.17232,0,0,0,15.75,5.06009l-.73279.73279a1.42755,1.42755,0,0,0-.16181.24365,3.64554,3.64554,0,0,0-2.472-.32159A6.34755,6.34755,0,0,0,9.14664,7.49423a8.0187,8.0187,0,0,0-8.14551,5.541,6.99527,6.99527,0,0,0,.00831,4.78808A8.16141,8.16141,0,0,0,6.924,23.172a8.03971,8.03971,0,0,0,1.73046.18847,7.94,7.94,0,0,0,7.91016-8.44922,6.35429,6.35429,0,0,0,1.77881-3.23632,3.669,3.669,0,0,0-.311-2.44471,1.5,1.5,0,0,0,.23267-.18957l.73267-.73267a3.17381,3.17381,0,0,0,3.49163-5.16217Zm-5.62054,8.2547a4.93089,4.93089,0,0,1-1.38818,2.47363l-.09912.09961a1.12648,1.12648,0,0,0-.32422.89356,6.43911,6.43911,0,0,1-7.81006,6.83984,6.69023,6.69023,0,0,1-4.82959-4.39941A5.49432,5.49432,0,0,1,2.41129,13.547a6.563,6.563,0,0,1,6.77734-4.5459,1.13125,1.13125,0,0,0,.896-.32422l.10156-.10156a4.92122,4.92122,0,0,1,2.47168-1.38575,1.94865,1.94865,0,0,1,1.78809.39454L16.47428,9.6124A1.95354,1.95354,0,0,1,16.86881,11.40048Zm4.55988-4.82843a1.66594,1.66594,0,0,1-2.56824-.24817L17.20438,7.98,16.07792,6.85355,17.734,5.19748a1.67286,1.67286,0,1,1,2.59925-1.4726,1.6662,1.6662,0,0,1,1.09546,2.84717Z"/></svg>