<svg xmlns="http://www.w3.org/2000/svg" viewBox="0 0 19.551 23.5">
  <path fill="#0970e6" d="M16.57,20.21a.75.75,0,1,0,1,.352A.75.75,0,0,0,16.57,20.21Z"/>
  <path fill="#0970e6" d="M16.57,16.4a.75.75,0,1,0,1,.352A.75.75,0,0,0,16.57,16.4Z"/>
  <path fill="#0970e6" d="M19.478,11.981a.75.75,0,1,0-.353,1A.751.751,0,0,0,19.478,11.981Z"/>
  <path fill="#0970e6" d="M13.71,18.3a.75.75,0,1,0,1,.352A.75.75,0,0,0,13.71,18.3Z"/>
  <path fill="#0970e6" d="M9.662,12.664c-.86-.969-.359-2.219.249-3.131A3.872,3.872,0,0,0,11.02,6.882,4.394,4.394,0,0,0,7.55,2.823a1.9,1.9,0,0,0,.217-.871,1.977,1.977,0,0,0-3.953,0,1.916,1.916,0,0,0,.217.871A4.4,4.4,0,0,0,.561,6.882,3.873,3.873,0,0,0,1.692,9.554c.594.91,1.079,2.152.227,3.11A5.361,5.361,0,0,0,.667,18.076,2.966,2.966,0,0,0,0,19.95v1.463A2.106,2.106,0,0,0,2.12,23.5H9.461a2.106,2.106,0,0,0,2.12-2.087V19.95a2.966,2.966,0,0,0-.667-1.874A5.356,5.356,0,0,0,9.662,12.664ZM5.791,1.5a.464.464,0,0,1,.476.452.477.477,0,0,1-.953,0A.464.464,0,0,1,5.791,1.5Zm0,2.563c2.059,0,3.729,1.262,3.729,2.819A2.213,2.213,0,0,1,9.112,8.13H2.471a2.212,2.212,0,0,1-.41-1.248C2.061,5.325,3.731,4.063,5.791,4.063Zm-2.75,9.6a3.752,3.752,0,0,0,.145-4.53H8.4a3.743,3.743,0,0,0,.139,4.53,3.794,3.794,0,0,1,.832,4.232H2.209A3.794,3.794,0,0,1,3.041,13.66Zm7.04,7.753a.6.6,0,0,1-.62.587H2.12a.6.6,0,0,1-.62-.587V19.95a1.489,1.489,0,0,1,.454-1.063c.008,0,.015,0,.023,0H9.605a.174.174,0,0,0,.022,0,1.489,1.489,0,0,1,.454,1.063Z"/>
</svg>