<?xml version="1.0" encoding="utf-8"?>
<!-- Generator: Adobe Illustrator 16.0.0, SVG Export Plug-In . SVG Version: 6.00 Build 0)  -->
<!DOCTYPE svg PUBLIC "-//W3C//DTD SVG 1.1//EN" "http://www.w3.org/Graphics/SVG/1.1/DTD/svg11.dtd">
<svg version="1.1" id="Layer_1" xmlns="http://www.w3.org/2000/svg" xmlns:xlink="http://www.w3.org/1999/xlink" x="0px" y="0px"
	 width="24px" height="24px" viewBox="0 0 24 24" enable-background="new 0 0 24 24" xml:space="preserve">
<g>
	<path fill="none" d="M0,0h24v24H0V0z"/>
</g>
<g>
	<path d="M12,4.5C7,4.5,2.73,7.61,1,12c1.73,4.391,6,7.5,11,7.5s9.27-3.109,11-7.5C21.27,7.61,17,4.5,12,4.5z M12,17
		c-2.76,0-5-2.24-5-5s2.24-5,5-5s5,2.24,5,5S14.76,17,12,17z M12,9c-1.66,0-3,1.34-3,3s1.34,3,3,3s3-1.34,3-3S13.66,9,12,9z"/>
</g>
<g>
	<rect x="-1.232" y="10.869" transform="matrix(0.6571 0.7538 -0.7538 0.6571 13.0897 -5.0382)" width="26.631" height="2"/>
</g>
</svg>
