<svg xmlns="http://www.w3.org/2000/svg" viewBox="0 0 22.923 23">
  <path fill="#0970e6" d="M22.918,2.7A2.549,2.549,0,0,0,20.393,0a2.712,2.712,0,0,0-1.919.821l-.538.538A6.084,6.084,0,0,0,15.858.988a5.961,5.961,0,0,0-2.786.688,2.483,2.483,0,0,0-.715-.1,2.524,2.524,0,0,0-1.8.744l-.232.232a2.544,2.544,0,0,0-.665,2.423L.84,13.8a2.877,2.877,0,0,0,0,4.063l4.3,4.3a2.873,2.873,0,0,0,4.064,0l8.821-8.821a2.578,2.578,0,0,0,.628.077,2.527,2.527,0,0,0,1.8-.743l.232-.233a2.544,2.544,0,0,0,.639-2.521,6.1,6.1,0,0,0,.273-4.96l.508-.508A2.747,2.747,0,0,0,22.918,2.7ZM8.143,21.1a1.374,1.374,0,0,1-1.942,0L1.9,16.8a1.375,1.375,0,0,1,0-1.943l1.206-1.206c0,.005.006.011.011.016l1.9,1.9a.5.5,0,0,0,.707,0,.5.5,0,0,0,0-.707l-1.905-1.9c-.005-.005-.011-.006-.016-.011l1.685-1.685s.006.011.011.016l1.9,1.9a.5.5,0,0,0,.708-.707l-1.905-1.9S6.2,10.565,6.2,10.56l1.55-1.55c0,.005.006.011.011.016l1.9,1.9a.5.5,0,0,0,.707-.707l-1.9-1.9c-.005-.005-.011-.006-.016-.01l2.383-2.384,6.242,6.242Zm11.478-9.72-.232.232a1.028,1.028,0,0,1-1.435.024L11.365,5.045a1.035,1.035,0,0,1,.024-1.435l.232-.232a1.037,1.037,0,0,1,1.464,0l6.541,6.541A1.039,1.039,0,0,1,19.621,11.378Zm1.42-7.989L19.778,4.652A4.626,4.626,0,0,1,20.1,8.971L14.023,2.9a4.466,4.466,0,0,1,1.835-.409,4.658,4.658,0,0,1,2.395.676l1.282-1.282a1.225,1.225,0,0,1,.858-.382,1.007,1.007,0,0,1,.722.308A1.086,1.086,0,0,1,21.041,3.389Z"/>
</svg>