<svg xmlns="http://www.w3.org/2000/svg" viewBox="0 0 15.789 23.5">
  <path fill="#0970e6" d="M13.577.481a.749.749,0,0,0-.7-.481H2.912a.75.75,0,0,0-.7.481C2.19.539,0,7.848,0,9.45a6.608,6.608,0,0,0,3.061,5.27c.527.382.968.7,1.448.984a6.371,6.371,0,0,0,2.636.857V22H4.833a.75.75,0,1,0,0,1.5h6.123a.75.75,0,1,0,0-1.5H8.645V16.561a6.362,6.362,0,0,0,2.634-.857c.479-.286.921-.6,1.449-.984a6.607,6.607,0,0,0,3.061-5.27C15.789,7.848,13.6.539,13.577.481ZM3.467,1.5H12.32c.381,1.288,1.251,4.351,1.7,6.333H1.773C2.221,5.84,3.1,2.754,3.467,1.5Zm8.381,12.005c-.5.36-.913.657-1.34.912a4.942,4.942,0,0,1-2.547.689H7.828a4.948,4.948,0,0,1-2.548-.689c-.428-.257-.842-.553-1.339-.912A5.163,5.163,0,0,1,1.5,9.45a4.116,4.116,0,0,1,.071-.617H14.218a4.1,4.1,0,0,1,.071.617A5.162,5.162,0,0,1,11.848,13.505Z"/>
</svg>