<svg xmlns="http://www.w3.org/2000/svg" width="24" height="24" viewBox="0 0 24 24" class="channel-head__icon"><path d="M21.722,8c0-1.2-1.462-3.707-1.755-4.2a.749.749,0,0,0-.643-.365H4.675a.75.75,0,0,0-.649.375
    C3.616,4.522,2.278,6.921,2.278,8a2.987,2.987,0,0,0,2.193,2.87v7.641a2.055,2.055,0,0,0,2.052,2.052
    H17.476a2.055,2.055,0,0,0,2.053-2.052V10.87A2.987,2.987,0,0,0,21.722,8ZM14.2,19.063
    H9.8V15.227a.486.486,0,0,1,.487-.486h3.422a.486.486,0,0,1,.487.486Zm3.278,0H15.7
    V15.227a1.988,1.988,0,0,0-1.987-1.986H10.289A1.988,1.988,0,0,0,8.3,15.227v3.836
    H6.523a.552.552,0,0,1-.552-.552
    V10.905a3,3,0,0,0,1.543-.926,2.988,2.988,0,0,0,4.486,0,2.988,2.988,0,0,0,4.486,0,3,3,0,0,0,1.543.926
    v7.606A.553.553,0,0,1,17.476,19.063Zm1.253-9.57A1.5,1.5,0,0,1,17.236,8a.75.75,0,0,0-1.5,0
    A1.493,1.493,0,1,1,12.75,8a.75.75,0,0,0-1.5,0A1.493,1.493,0,1,1,8.264,8a.75.75,0,0,0-1.5,0
    A1.493,1.493,0,0,1,3.778,8,11.944,11.944,0,0,1,5.113,4.937h13.78
    A10.689,10.689,0,0,1,20.222,8,1.5,1.5,0,0,1,18.729,9.493Z"></path></svg>