<svg xmlns="http://www.w3.org/2000/svg" viewBox="0 0 19.24 21">
  <path fill="#0970e6" d="M18.126,11.357l-3.07,1.7L10.62,10.5l4.436-2.561,3.069,1.705a.75.75,0,0,0,.729-1.312L16.571,7.064,18.53,5.933a.5.5,0,1,0-.5-.866L16.071,6.2l.043-2.61a.75.75,0,0,0-.737-.763.737.737,0,0,0-.763.738l-.058,3.51L10.12,9.634V4.512l3.011-1.806a.75.75,0,0,0-.772-1.287L10.12,2.763V.5a.5.5,0,0,0-1,0V2.763L6.881,1.419a.75.75,0,0,0-.772,1.287L9.12,4.512V9.634L4.684,7.073l-.059-3.51a.75.75,0,1,0-1.5.025L3.169,6.2,1.21,5.067a.5.5,0,0,0-.5.866L2.669,7.064.386,8.332a.75.75,0,0,0,.728,1.312l3.07-1.7L8.62,10.5,4.184,13.061l-3.07-1.7a.75.75,0,1,0-.728,1.311l2.283,1.267L.71,15.067a.5.5,0,1,0,.5.866L3.169,14.8l-.044,2.611a.75.75,0,0,0,.738.762h.013a.749.749,0,0,0,.749-.737l.059-3.511L9.12,11.366v5.122L6.109,18.294a.75.75,0,1,0,.772,1.287L9.12,18.237V20.5a.5.5,0,0,0,1,0V18.237l2.239,1.344a.75.75,0,0,0,.772-1.287L10.12,16.488V11.366l4.436,2.561.058,3.511a.75.75,0,0,0,.75.737h.013a.75.75,0,0,0,.737-.762L16.071,14.8l1.959,1.131a.494.494,0,0,0,.25.067.5.5,0,0,0,.25-.933l-1.959-1.132,2.282-1.267a.75.75,0,1,0-.727-1.311Z"/>
</svg>