<svg viewBox="0 0 80 80" xmlns="http://www.w3.org/2000/svg"><g><path fill="#fff" d="M74,25.89a25.13,25.13,0,0,0-1.59-8.31,17.5,17.5,0,0,0-10-10A25.12,25.12,0,0,0,54.11,6C50.46,5.81,49.3,5.77,40,5.77s-10.46,0-14.11.21a25.12,25.12,0,0,0-8.31,1.59,17.5,17.5,0,0,0-10,10A25.13,25.13,0,0,0,6,25.89C5.81,29.54,5.77,30.7,5.77,40s0,10.46.21,14.11a25.12,25.12,0,0,0,1.59,8.31,17.5,17.5,0,0,0,10,10A25.12,25.12,0,0,0,25.89,74c3.65.17,4.82.21,14.11.21s10.46,0,14.11-.21a25.12,25.12,0,0,0,8.31-1.59,17.5,17.5,0,0,0,10-10A25.12,25.12,0,0,0,74,54.11c.17-3.65.21-4.82.21-14.11S74.19,29.54,74,25.89ZM67.86,53.83a18.94,18.94,0,0,1-1.18,6.36,11.34,11.34,0,0,1-6.5,6.5,18.94,18.94,0,0,1-6.36,1.18c-3.61.16-4.69.2-13.83.2s-10.22,0-13.83-.2a18.94,18.94,0,0,1-6.36-1.18,11.34,11.34,0,0,1-6.5-6.5,18.94,18.94,0,0,1-1.18-6.36c-.16-3.61-.2-4.69-.2-13.83s0-10.22.2-13.83a18.94,18.94,0,0,1,1.18-6.36,11.34,11.34,0,0,1,6.5-6.5,18.94,18.94,0,0,1,6.36-1.18c3.61-.16,4.69-.2,13.83-.2s10.22,0,13.83.2a18.94,18.94,0,0,1,6.36,1.18,11.34,11.34,0,0,1,6.5,6.5,18.94,18.94,0,0,1,1.18,6.36c.16,3.61.2,4.69.2,13.83S68,50.22,67.86,53.83Z" /><path fill="#fff" d="M40,22.42A17.58,17.58,0,1,0,57.58,40,17.58,17.58,0,0,0,40,22.42Zm0,29A11.41,11.41,0,1,1,51.41,40,11.41,11.41,0,0,1,40,51.41Z" /><circle fill="#fff" cx="58.27" cy="21.73" r="4.11" /></g></svg>