<svg xmlns="http://www.w3.org/2000/svg" viewBox="0 0 17.04708 23.10104">
  <path fill="#0970e6" d="M13.10567,1.33541A8.7575,8.7575,0,0,0,4.55831.90768,7.50475,7.50475,0,0,0,.92305,4.52975,8.62037,8.62037,0,0,0,2.91866,14.934v.89453a3.16207,3.16207,0,0,0,3.1582,3.15821h4.898a3.16207,3.16207,0,0,0,3.1582-3.15821V14.934A8.51753,8.51753,0,0,0,13.10567,1.33541Zm-.06055,12.55566a1.15416,1.15416,0,0,0-.41211.88282v1.05468a1.66012,1.66012,0,0,1-1.6582,1.65821H6.07686a1.66012,1.66012,0,0,1-1.6582-1.65821V14.77486a1.15529,1.15529,0,0,0-.41406-.88476A7.15307,7.15307,0,0,1,2.28194,5.16451,5.99233,5.99233,0,0,1,5.18917,2.269a7.93652,7.93652,0,0,1,3.34472-.76562,7.01647,7.01647,0,0,1,4.51123,12.38769Z"/>
  <path fill="#0970e6" d="M11.61153,19.54439H5.44014a.75.75,0,1,0,0,1.5h6.17139a.75.75,0,1,0,0-1.5Z"/>
  <path fill="#0970e6" d="M11.09688,21.601H5.9543a.75.75,0,0,0,0,1.5h5.14258a.75.75,0,1,0,0-1.5Z"/>
  <path fill="#0970e6" d="M6.965,2.893A6.67435,6.67435,0,0,0,2.95528,7.56979a.5003.5003,0,0,0,.97461.22656,5.67268,5.67268,0,0,1,3.4082-3.97559A.5.5,0,1,0,6.965,2.893Z"/>
</svg>