<?xml version="1.0" encoding="utf-8"?>
<!-- Generator: Adobe Illustrator 16.0.0, SVG Export Plug-In . SVG Version: 6.00 Build 0)  -->
<!DOCTYPE svg PUBLIC "-//W3C//DTD SVG 1.1//EN" "http://www.w3.org/Graphics/SVG/1.1/DTD/svg11.dtd">
<svg version="1.1" id="Layer_1" xmlns="http://www.w3.org/2000/svg" xmlns:xlink="http://www.w3.org/1999/xlink" x="0px" y="0px"
	 width="500px" height="500px" viewBox="0 0 500 500" enable-background="new 0 0 500 500" xml:space="preserve">
<path d="M250.04,132.5c-39.8,0-75.12,19.13-97.29,48.7l8.41-1.79l53.12,102.939l94.71-21.67l-0.181-19.77l-81.06,18.55l-7.26-17
	l87.3-21.12l-0.2-19.77l-104.8,22.2l-6.39-14.45l129.1-28.24v95.35l-119.99,27.83l-53.72-106.64l-10.49,2.13
	c-8.17,16.33-12.76,34.75-12.76,54.25c0,67.1,54.39,121.5,121.5,121.5c67.1,0,121.5-54.4,121.5-121.5
	C371.54,186.9,317.14,132.5,250.04,132.5z M245.12,349.08c-10.67,2.45-21.31-4.23-23.75-14.91s4.23-21.31,14.9-23.75
	c10.69-2.45,21.32,4.23,23.77,14.9C262.48,336,255.8,346.64,245.12,349.08z M310.59,334.11c-10.68,2.439-21.32-4.23-23.77-14.91
	c-2.44-10.681,4.239-21.32,14.92-23.76c10.68-2.44,21.31,4.229,23.76,14.909C327.94,321.03,321.27,331.66,310.59,334.11z"/>
<path d="M65.942,443.251c-13.98-0.163-27.197-6.405-36.205-17.098c-9.253-10.733-14.295-24.461-14.189-38.632v-268.5
	C14.221,89.667,36.847,64.75,66.193,63.249h368.743c14.08-0.01,27.43,6.259,36.414,17.098c9.256,10.74,14.299,24.476,14.189,38.653
	v268.5c1.314,29.347-21.309,54.25-50.645,55.751H66.172H65.942z M434.895,93.259H66.172C53.545,94.985,44.483,106.301,45.559,119
	v268.5c-0.103,6.912,2.307,13.627,6.78,18.897c3.383,4.179,8.417,6.677,13.792,6.844h368.805
	c12.637-1.716,21.709-13.035,20.635-25.741V119c0.102-6.912-2.309-13.626-6.781-18.897c-3.383-4.179-8.416-6.677-13.791-6.843
	h-0.062H434.895z M434.895,78.254h0.209H434.895z"/>
<g>
	<polyline fill="none" stroke="#000000" stroke-width="4" stroke-miterlimit="10" points="141.591,201.529 114.93,207.55 
		104.055,190.442 157.25,178 	"/>
</g>
</svg>
