<?xml version="1.0" encoding="utf-8"?>
<!-- Generator: Adobe Illustrator 16.0.0, SVG Export Plug-In . SVG Version: 6.00 Build 0)  -->
<!DOCTYPE svg PUBLIC "-//W3C//DTD SVG 1.1//EN" "http://www.w3.org/Graphics/SVG/1.1/DTD/svg11.dtd">
<svg version="1.1" id="Capa_1" xmlns="http://www.w3.org/2000/svg" xmlns:xlink="http://www.w3.org/1999/xlink" x="0px" y="0px"
	 width="226px" height="204.5px" viewBox="129.5 -4.5 226 204.5" enable-background="new 129.5 -4.5 226 204.5"
	 xml:space="preserve">
<g>
	<g>
		<path d="M274.576,124.594c-4.739,0-8.594-3.338-8.594-7.438s3.854-7.438,8.594-7.438c4.738,0,8.594,3.336,8.594,7.438
			c0,2.157,1.748,3.905,3.906,3.905c2.156,0,3.906-1.748,3.906-3.905c0-7.158-5.334-13.177-12.5-14.812v-2.031
			c0-2.155-1.75-3.905-3.906-3.905c-2.158,0-3.906,1.75-3.906,3.905v2.031c-7.167,1.635-12.5,7.652-12.5,14.812
			c0,8.409,7.359,15.251,16.406,15.251c4.738,0,8.594,3.337,8.594,7.438c0,4.102-3.855,7.438-8.594,7.438
			c-4.739,0-8.594-3.336-8.594-7.438c0-2.156-1.75-3.906-3.906-3.906c-2.158,0-3.906,1.75-3.906,3.906
			c0,7.158,5.333,13.178,12.5,14.812v1.688c0,2.155,1.748,3.905,3.906,3.905c2.156,0,3.906-1.75,3.906-3.905v-1.688
			c7.166-1.634,12.5-7.652,12.5-14.812C290.982,131.434,283.622,124.594,274.576,124.594z"/>
	</g>
</g>
<g>
	<g>
		<path d="M317.359,101.357c-5.103-7.951-12.291-14.313-20.789-18.398c-1.945-0.936-4.279-0.117-5.213,1.828
			c-0.937,1.944-0.117,4.278,1.828,5.213c14.809,7.119,24.377,22.329,24.377,38.75c0,7.027-1.732,13.995-5.008,20.152
			c-1.015,1.904-0.291,4.271,1.612,5.283c0.584,0.312,1.213,0.459,1.831,0.459c1.396,0,2.749-0.752,3.452-2.072
			c3.875-7.283,5.924-15.521,5.924-23.822C325.375,119,322.604,109.527,317.359,101.357z"/>
	</g>
</g>
<g>
	<g>
		<path d="M280.716,77.969h-0.263c-2.157,0-3.906,1.749-3.906,3.906c0,2.158,1.749,3.906,3.906,3.906h0.227c0.006,0,0.012,0,0.019,0
			c2.149,0,3.896-1.737,3.905-3.888C284.613,79.736,282.873,77.979,280.716,77.969z"/>
	</g>
</g>
<g>
	<g>
		<path d="M256.002,167.5c-14.808-7.119-24.376-22.329-24.376-38.75c0-7.025,1.732-13.994,5.008-20.152
			c1.013-1.903,0.291-4.27-1.614-5.283c-1.904-1.014-4.27-0.291-5.283,1.613c-3.875,7.283-5.924,15.521-5.924,23.822
			c0,9.75,2.771,19.223,8.015,27.393c5.103,7.951,12.291,14.314,20.789,18.399c0.547,0.263,1.123,0.386,1.689,0.386
			c1.455,0,2.852-0.814,3.523-2.213C258.766,170.77,257.947,168.436,256.002,167.5z"/>
	</g>
</g>
<g>
	<g>
		<path d="M268.734,171.719h-0.227c-2.167-0.004-3.914,1.729-3.924,3.887c-0.011,2.158,1.73,3.916,3.889,3.926l0.262,0.001
			c2.158,0,3.906-1.749,3.906-3.906S270.893,171.719,268.734,171.719z"/>
	</g>
</g>
<g>
	<g>
		<g>
			<path d="M292.332,64.753c-0.477-1.133-1.059-2.2-1.736-3.19h10.17c9.908,0,17.969-8.061,17.969-17.969
				c0-9.908-8.061-17.969-17.969-17.969h-31.281c1.988-2.892,3.156-6.39,3.156-10.156c0-9.908-8.061-17.969-17.969-17.969h-95.703
				C149.061-2.5,141,5.561,141,15.469c0,9.908,8.061,17.969,17.969,17.969h31.281c-1.989,2.891-3.156,6.389-3.156,10.156
				s1.167,7.265,3.156,10.156h-10.188c-9.908,0-17.969,8.061-17.969,17.969c0,5.69,2.662,10.768,6.803,14.062
				c-4.141,3.294-6.803,8.372-6.803,14.062c0,5.688,2.662,10.768,6.803,14.062c-4.141,3.295-6.803,8.372-6.803,14.062
				s2.662,10.769,6.803,14.062c-4.141,3.295-6.803,8.371-6.803,14.062c0,9.907,8.061,17.969,17.969,17.969h46.035
				c12.127,12.971,29.379,21.094,48.496,21.094c36.617,0,66.406-29.789,66.406-66.406C341,98.275,320.363,72.532,292.332,64.753z
				 M300.766,33.437c5.601,0,10.156,4.556,10.156,10.156s-4.557,10.156-10.156,10.156h-25h-70.703
				c-5.601,0-10.156-4.556-10.156-10.156s4.556-10.156,10.156-10.156H300.766z M158.969,25.625c-5.601,0-10.156-4.556-10.156-10.156
				s4.556-10.156,10.156-10.156h95.703c5.6,0,10.156,4.556,10.156,10.156s-4.557,10.156-10.156,10.156H158.969z M180.062,61.562
				h95.704c1.572,0,3.08,0.366,4.432,1.02c-1.848-0.155-3.717-0.238-5.604-0.238c-18.338,0-34.963,7.472-46.992,19.531h-47.54
				c-5.6,0-10.156-4.557-10.156-10.156C169.906,66.119,174.462,61.562,180.062,61.562z M180.062,89.687h40.865
				c-4.435,6.075-7.863,12.928-10.041,20.312h-30.825c-5.601,0-10.156-4.557-10.156-10.155
				C169.906,94.244,174.462,89.687,180.062,89.687z M180.062,117.812h29.031c-0.593,3.56-0.906,7.213-0.906,10.938
				c0,3.182,0.23,6.311,0.665,9.375h-28.79c-5.601,0-10.156-4.557-10.156-10.156C169.906,122.368,174.462,117.812,180.062,117.812z
				 M180.062,166.25c-5.601,0-10.156-4.557-10.156-10.156c0-5.601,4.556-10.156,10.156-10.156h30.385
				c1.971,7.35,5.173,14.197,9.372,20.312H180.062L180.062,166.25z M274.594,187.344c-32.309,0-58.593-26.285-58.593-58.594
				c0-32.309,26.285-58.594,58.593-58.594c32.309,0,58.594,26.285,58.594,58.594C333.188,161.059,306.902,187.344,274.594,187.344z"
				/>
			<path d="M274.593,197.154c-18.548,0-36.485-7.677-49.356-21.094h-45.175c-11.011,0-19.969-8.958-19.969-19.969
				c0-5.323,2.091-10.333,5.807-14.062c-3.716-3.729-5.807-8.738-5.807-14.062c0-5.323,2.091-10.332,5.807-14.062
				c-3.716-3.729-5.807-8.737-5.807-14.062s2.092-10.334,5.807-14.062c-3.715-3.729-5.807-8.738-5.807-14.062
				c0-11.011,8.958-19.969,19.969-19.969h6.775c-1.147-2.55-1.743-5.317-1.743-8.156c0-2.839,0.596-5.606,1.744-8.156h-27.869
				C147.958,35.438,139,26.48,139,15.469C139,4.458,147.958-4.5,158.969-4.5h95.703c11.011,0,19.969,8.958,19.969,19.969
				c0,2.837-0.597,5.604-1.744,8.156h27.869c11.011,0,19.969,8.958,19.969,19.969c0,11.011-8.958,19.969-19.969,19.969h-5.425
				c28.188,8.986,47.659,35.426,47.658,65.185C342.999,166.468,312.312,197.154,274.593,197.154z M180.062,55.75
				c-8.806,0-15.969,7.164-15.969,15.969c0,4.884,2.205,9.439,6.048,12.497l1.968,1.565l-1.968,1.565
				c-3.844,3.057-6.048,7.612-6.048,12.497c0,4.884,2.205,9.438,6.048,12.496l1.967,1.565l-1.967,1.565
				c-3.844,3.058-6.048,7.613-6.048,12.496c0,4.885,2.205,9.439,6.048,12.497l1.967,1.565l-1.967,1.565
				c-3.844,3.058-6.048,7.613-6.048,12.497c0,8.806,7.164,15.969,15.969,15.969h46.903l0.593,0.634
				c12.157,13.003,29.3,20.46,47.035,20.46c35.514,0,64.406-28.893,64.406-64.406C339,99.916,319.59,74.393,291.797,66.68
				l-0.933-0.259l-0.376-0.893c-0.011-0.026-0.022-0.053-0.034-0.08l-10.424-0.873c-1.828-0.153-3.657-0.231-5.438-0.231
				c-17.205,0-33.391,6.728-45.576,18.943l-0.586,0.587h-48.37c-6.703,0-12.156-5.453-12.156-12.156
				c0.002-6.704,5.456-12.157,12.157-12.157h95.704c1.819,0,3.653,0.422,5.303,1.22l9.317,4.507
				c-0.402-0.913-0.886-1.785-1.44-2.596l-2.142-3.129h13.962c8.806,0,15.969-7.164,15.969-15.969
				c0-8.806-7.163-15.969-15.969-15.969h-35.083l2.153-3.133c1.835-2.669,2.805-5.789,2.805-9.023
				c0-8.806-7.163-15.969-15.969-15.969h-95.703C150.164-0.5,143,6.664,143,15.469c0,8.805,7.164,15.969,15.969,15.969h35.084
				l-2.155,3.133c-1.834,2.667-2.804,5.787-2.804,9.023c0,3.236,0.97,6.356,2.804,9.022l2.156,3.134H180.062z M180.062,63.562
				c-4.497,0-8.156,3.66-8.157,8.158c0,4.497,3.659,8.155,8.156,8.155h46.717c7.745-7.583,16.966-13.112,27.003-16.313H180.062z
				 M274.594,189.344c-33.411,0-60.593-27.183-60.593-60.594c0-33.412,27.182-60.594,60.593-60.594s60.594,27.182,60.594,60.594
				C335.188,162.161,308.005,189.344,274.594,189.344z M274.594,72.156c-31.205,0-56.593,25.388-56.593,56.594
				s25.388,56.594,56.593,56.594c31.206,0,56.594-25.388,56.594-56.594S305.8,72.156,274.594,72.156z M223.618,168.25h-43.556
				c-6.703,0-12.156-5.453-12.156-12.156s5.453-12.156,12.156-12.156h31.919l0.397,1.481c1.887,7.035,4.945,13.663,9.089,19.699
				L223.618,168.25z M180.062,147.938c-4.498,0-8.156,3.659-8.156,8.156s3.659,8.156,8.156,8.156h36.08
				c-3.116-5.11-5.534-10.577-7.211-16.312H180.062z M211.156,140.125h-31.094c-6.703,0-12.156-5.453-12.156-12.156
				c0-6.703,5.454-12.156,12.156-12.156h31.391l-0.388,2.328c-0.583,3.501-0.878,7.07-0.878,10.609c0,3.019,0.217,6.078,0.645,9.094
				L211.156,140.125z M180.062,119.812c-4.497,0-8.156,3.659-8.156,8.156c0,4.497,3.659,8.156,8.156,8.156h26.525
				c-0.266-2.456-0.4-4.928-0.4-7.375c0-2.977,0.197-5.973,0.586-8.938H180.062z M212.381,111.999h-32.32
				c-6.703,0-12.156-5.453-12.156-12.155c0.002-6.704,5.456-12.157,12.157-12.157h44.801l-2.321,3.179
				c-4.373,5.991-7.649,12.619-9.737,19.698L212.381,111.999z M180.062,91.687c-4.497,0-8.156,3.659-8.157,8.158
				c0,4.496,3.659,8.154,8.156,8.154h29.347c1.837-5.762,4.424-11.229,7.716-16.312H180.062z M300.766,55.749h-95.703
				c-6.703,0-12.156-5.453-12.156-12.156c0-6.703,5.453-12.156,12.156-12.156h95.703c6.703,0,12.156,5.453,12.156,12.156
				C312.922,50.296,307.469,55.749,300.766,55.749z M205.063,35.437c-4.497,0-8.156,3.659-8.156,8.156
				c0,4.497,3.659,8.156,8.156,8.156h95.703c4.497,0,8.156-3.659,8.156-8.156c0-4.498-3.659-8.156-8.156-8.156H205.063z
				 M254.672,27.625h-95.703c-6.703,0-12.156-5.453-12.156-12.156c0-6.703,5.453-12.156,12.156-12.156h95.703
				c6.703,0,12.156,5.453,12.156,12.156C266.828,22.172,261.375,27.625,254.672,27.625z M158.969,7.313
				c-4.497,0-8.156,3.659-8.156,8.156c0,4.497,3.659,8.156,8.156,8.156h95.703c4.497,0,8.156-3.659,8.156-8.156
				c0-4.498-3.659-8.156-8.156-8.156H158.969z"/>
		</g>
	</g>
</g>
</svg>
