<svg xmlns="http://www.w3.org/2000/svg" viewBox="0 0 23.506 16.635">
  <path fill="#0970e6" d="M22.307,6.733c-.14-.336-.289-.659-.444-.97-.021-.042-.045-.081-.066-.122-.138-.27-.279-.531-.426-.778-.019-.031-.038-.058-.057-.089-.153-.252-.31-.493-.472-.72-.018-.026-.038-.049-.057-.075-.161-.222-.325-.432-.493-.626-.028-.033-.058-.063-.086-.1-.156-.175-.313-.34-.473-.49-.049-.046-.1-.086-.147-.129-.137-.121-.275-.236-.414-.338-.074-.054-.148-.1-.223-.149-.112-.073-.224-.143-.337-.2-.1-.051-.193-.093-.29-.134-.053-.022-.106-.055-.158-.073-.035-.013-.068-.013-.1-.024-.055-.018-.111-.048-.165-.062a2.743,2.743,0,0,0-.278-.041c-.052-.007-.1-.018-.155-.023a2.336,2.336,0,0,0-.53.015c-.014,0-.029,0-.043,0a3.214,3.214,0,0,0-2.424-1.6A.746.746,0,0,0,14.371,0H7.082C3.764,0,1.21,3.059,1.008,7.191H.75a.75.75,0,0,0,0,1.5h.309c.434,4.032,2.982,7.154,6.023,7.154h8.8a.556.556,0,0,0,.082-.005,2,2,0,0,0,.707-.092A2.4,2.4,0,0,0,17.8,14.93c.086.1.174.173.261.262.108.112.215.228.325.328.094.085.188.155.283.231.118.1.236.19.355.271.086.057.172.1.258.153a3.867,3.867,0,0,0,.386.2c.083.036.164.063.245.091s.15.065.225.084c.051.013.1.009.151.019s.086.03.129.036a2.419,2.419,0,0,0,.336.025l.022,0a2.189,2.189,0,0,0,1.394-.5C24.141,14.557,23.712,10.112,22.307,6.733Zm-1.35,8.376-.019,0a.789.789,0,0,1-.263.009c-.034,0-.069-.007-.107-.014s-.076-.018-.115-.03a1.738,1.738,0,0,1-.262-.1c-.023-.01-.044-.018-.067-.03a2.93,2.93,0,0,1-.352-.219c-.036-.026-.072-.055-.107-.083-.087-.067-.175-.141-.264-.221-.049-.045-.1-.087-.147-.135-.111-.109-.224-.227-.338-.356-.059-.068-.118-.142-.177-.215s-.137-.172-.206-.264-.125-.166-.186-.254a12.293,12.293,0,0,1-1.239-2.3C15.655,7.406,15.78,4.059,16.8,3.24a.849.849,0,0,1,.133-.081.862.862,0,0,1,.682-.012c.047.015.095.035.144.056.064.028.128.055.2.093.047.026.1.059.144.09.081.051.162.1.249.167.037.029.076.065.113.1.1.08.2.161.3.259.04.039.081.087.121.128.1.1.2.205.3.326.081.094.162.205.243.31.065.084.129.159.194.25a12.169,12.169,0,0,1,1.3,2.388,14.3,14.3,0,0,1,1,3.742c.228,1.906-.06,3.405-.7,3.917h0A.718.718,0,0,1,20.957,15.109ZM14.086,1.6a1.26,1.26,0,0,1,1.177.392,3.831,3.831,0,0,1,.307.36c-1.628,1.777-1.176,5.926.154,9.124a14.286,14.286,0,0,0,1.084,2.1,1.6,1.6,0,0,1-.78.705,1.02,1.02,0,0,1-.871-.155C14.241,13.565,13.1,11.7,12.624,8.8,12,5.029,12.9,1.981,14.086,1.6ZM2.51,8.081A5.127,5.127,0,0,1,7.58,4.852a.5.5,0,0,0,.111-1A6.18,6.18,0,0,0,2.668,5.9C3.2,3.274,4.9,1.5,7.082,1.5h5.582c-1.095,1.427-1.545,4.316-1.026,7.458A10.625,10.625,0,0,0,13.9,14.345H7.082C4.74,14.345,2.72,11.516,2.51,8.081Z"/>
  <path fill="#0970e6" d="M17.219,6.2a.75.75,0,1,0,1.05.145A.749.749,0,0,0,17.219,6.2Z"/>
  <path fill="#0970e6" d="M19.943,9.073a.75.75,0,1,0-1.051-.145A.751.751,0,0,0,19.943,9.073Z"/>
  <path fill="#0970e6" d="M19.643,11.243a.75.75,0,1,0,1.051.145A.751.751,0,0,0,19.643,11.243Z"/>
</svg>