<svg xmlns="http://www.w3.org/2000/svg" viewBox="0 0 24 24">
    <path fill="#0970e6" d="M21.1589,1.58183a6.74864,6.74864,0,0,0-8.85429.76576L2.18341,12.535A6.56978,6.56978,0,0,0,11.5047,21.7957l10.30811-10.375A6.57867,6.57867,0,0,0,21.1589,1.58183ZM20.54278,10.571,10.44025,20.73906a5.06994,5.06994,0,0,1-7.19238-7.14747l10.30761-10.375a5.07738,5.07738,0,0,1,7.01532-.16943A5.28693,5.28693,0,0,1,20.54278,10.571Z"/>
    <path fill="#0970e6" d="M14.07453,6.60331a1.01734,1.01734,0,0,0-1.436.00586L6.66487,12.62068a1.06126,1.06126,0,0,0,.00483,1.50094l3.251,3.22974a1.01075,1.01075,0,0,0,.71679.2959h.00293a1.009,1.009,0,0,0,.71729-.29981l6.00488-6.04394h.00049A1.01613,1.01613,0,0,0,17.35822,9.867Zm2.5791,3.99512-5.99647,6.0125a.04434.04434,0,0,1-.06276,0L7.37388,13.38853a.04435.04435,0,0,1,0-.06266l5.9648-5.98123a.04434.04434,0,0,1,.06268-.00011L16.658,10.58671a.01449.01449,0,0,1-.00488.01172Z"/>
    <path fill="#0970e6" d="M4.32294,18.60429a.75.75,0,1,0,1.06067.00336A.75.75,0,0,0,4.32294,18.60429Z"/>
    <path fill="#0970e6" d="M4.35919,15.02879a.75.75,0,1,0,1.06067.00342A.75.75,0,0,0,4.35919,15.02879Z"/>
    <path fill="#0970e6" d="M7.87518,18.56749a.75.75,0,1,0,1.06067.00341A.75.75,0,0,0,7.87518,18.56749Z"/>
    <path fill="#0970e6" d="M18.62439,4.30284A.75.75,0,1,0,19.685,4.29942.74993.74993,0,0,0,18.62439,4.30284Z"/>
    <path fill="#0970e6" d="M16.113,5.39634a.75.75,0,1,0-1.06067.00342A.75.75,0,0,0,16.113,5.39634Z"/>
    <path fill="#0970e6" d="M18.58759,7.85508a.75.75,0,1,0,1.06067-.00341A.75.75,0,0,0,18.58759,7.85508Z"/>
    <rect fill="none" width="24" height="24"/>
</svg>