<svg xmlns="http://www.w3.org/2000/svg" viewBox="0 0 18.352 23">
  <path fill="#0970e6" d="M18.155,9.229l-1.814-4.2a1.974,1.974,0,0,0,.3-1.01V1.666A1.668,1.668,0,0,0,14.976,0H3.375A1.668,1.668,0,0,0,1.709,1.666V4.017a1.978,1.978,0,0,0,.3,1.011L.2,9.229a2.4,2.4,0,0,0-.2.951v7.3A5.529,5.529,0,0,0,5.522,23h7.307a5.53,5.53,0,0,0,5.523-5.522v-7.3A2.372,2.372,0,0,0,18.155,9.229ZM15.143,1.666V4.017a.451.451,0,0,1-.058.17H13.771V1.5h1.205A.169.169,0,0,1,15.143,1.666ZM5.58,4.187V1.5H7.311V4.187ZM8.311,1.5h1.73V4.187H8.311Zm2.73,0h1.73V4.187h-1.73Zm-7.832.166A.168.168,0,0,1,3.375,1.5H4.58V4.187H3.269a.447.447,0,0,1-.06-.17Zm.351,3.56a.32.32,0,0,0,.01-.039H14.782c.005.012.005.025.01.037l1.986,4.6a1.008,1.008,0,0,1,.042.2H1.532a.867.867,0,0,1,.042-.2ZM1.5,17.037V11.024H16.852v6.013ZM12.829,21.5H5.522a4.015,4.015,0,0,1-3.965-3.463H16.8A4.016,4.016,0,0,1,12.829,21.5Z"/>
</svg>