<svg xmlns="http://www.w3.org/2000/svg" viewBox="0 0 18.495 23.577">
  <path fill="#0970e6" d="M18.277,1.279a.75.75,0,1,0-1.06,0A.75.75,0,0,0,18.277,1.279Z"/>
  <path fill="#0970e6" d="M17.213,2.464a.75.75,0,1,0,1.061,0A.75.75,0,0,0,17.213,2.464Z"/>
  <path fill="#0970e6" d="M14.96,2.464a.75.75,0,1,0,1.061,0A.75.75,0,0,0,14.96,2.464Z"/>
  <path fill="#0970e6" d="M17.213,4.707a.75.75,0,1,0,1.061,0A.749.749,0,0,0,17.213,4.707Z"/>
  <path fill="#0970e6" d="M10.5,10.019a.414.414,0,0,1-.089-.112L9.784,7.614a3.793,3.793,0,0,0,2.634,1.5c.024,0,.047,0,.071,0a.75.75,0,0,0,.069-1.5A2.908,2.908,0,0,1,10.4,5.8h1.39a1.5,1.5,0,0,0,1.5-1.5V2.429c0-.029,0-.058,0-.088a1.5,1.5,0,0,0-1.5-1.5H4.269a3.329,3.329,0,0,0-1.7,6.189L.481,11.608a.577.577,0,0,0-.027.056A4.819,4.819,0,0,0,0,13.7v6.415a3.646,3.646,0,0,0,3.8,3.458h6.03a3.646,3.646,0,0,0,3.8-3.458V14.394A3.2,3.2,0,0,0,12.6,12.06ZM4.269,2.341h7.523V4.3h-2.6a.555.555,0,0,0-.464.249l-.6,1.369H3.766a1.824,1.824,0,0,1,.5-3.578Zm7.863,17.778a2.157,2.157,0,0,1-2.3,1.958H3.8a2.156,2.156,0,0,1-2.3-1.958V13.7a3.346,3.346,0,0,1,.315-1.41h0L4.265,6.919H8.037l.948,3.454a1.808,1.808,0,0,0,.472.722l2.114,2.053a1.718,1.718,0,0,1,.561,1.246Z"/>
</svg>