<svg xmlns="http://www.w3.org/2000/svg" viewBox="0 0 18.646 23.252">
  <path fill="#0970e6" d="M18.052,8.415A4.961,4.961,0,0,0,13.831,5.76L12.348,5.7A5.318,5.318,0,0,0,14.18,4.645,4.856,4.856,0,0,0,15.9.541a.5.5,0,0,0-.384-.432,4.858,4.858,0,0,0-4.279,1.214A5.334,5.334,0,0,0,9.9,3.137a5.442,5.442,0,0,0-.94-1.265A4.852,4.852,0,0,0,4.756.414a.5.5,0,0,0-.407.409,4.855,4.855,0,0,0,1.476,4.2,5.607,5.607,0,0,0,.53.439L5.22,5.412A5.01,5.01,0,0,0,.556,12.7l4,7.824a4.953,4.953,0,0,0,4.26,2.726c.071,0,.141,0,.211,0a4.947,4.947,0,0,0,4.254-2.379L17.892,13.4A4.962,4.962,0,0,0,18.052,8.415ZM11.9,2.071a4.038,4.038,0,0,1,3.022-1.05,4.015,4.015,0,0,1-1.4,2.876,4.036,4.036,0,0,1-3.022,1.05A4.019,4.019,0,0,1,11.9,2.071ZM5.3,1.358A4.015,4.015,0,0,1,8.252,2.581,4.017,4.017,0,0,1,9.487,5.533,4.044,4.044,0,0,1,6.53,4.31,4.019,4.019,0,0,1,5.3,1.358ZM16.616,12.61,12,20.085a3.51,3.51,0,0,1-6.113-.246l-4-7.823a3.51,3.51,0,0,1,3.12-5.108l.148,0,8.611.348a3.511,3.511,0,0,1,2.845,5.351Z"/>
  <path fill="#0970e6" d="M9.508,18.9a.75.75,0,1,0,1.06-.045A.751.751,0,0,0,9.508,18.9Z"/>
  <path fill="#0970e6" d="M11.082,16.088a.75.75,0,1,0,1.059-.045A.75.75,0,0,0,11.082,16.088Z"/>
  <path fill="#0970e6" d="M12.655,13.278a.75.75,0,1,0,1.06-.046A.751.751,0,0,0,12.655,13.278Z"/>
  <path fill="#0970e6" d="M13.83,10.192a.75.75,0,1,0,1.06-.046A.749.749,0,0,0,13.83,10.192Z"/>
  <path fill="#0970e6" d="M7.881,16.057a.75.75,0,1,0,1.059-.045A.75.75,0,0,0,7.881,16.057Z"/>
  <path fill="#0970e6" d="M10.559,14.262a.75.75,0,1,0-1.059.045A.75.75,0,0,0,10.559,14.262Z"/>
  <path fill="#0970e6" d="M12.133,11.452a.75.75,0,1,0-1.059.045A.751.751,0,0,0,12.133,11.452Z"/>
</svg>