<svg xmlns="http://www.w3.org/2000/svg" viewBox="0 0 24 24"><defs><style>.a{fill:none;}.b{fill:#0970e6;}</style></defs><title>ic_nav_hygiene_beaute_vB</title><rect class="a" width="24" height="24"/><path class="b" d="M18.741,1.79248a.75135.75135,0,0,0-.55957-.25H5.8186a.74892.74892,0,0,0-.74511.834S6.50464,15.02979,6.6106,15.894a2.76161,2.76161,0,0,0,1.21582,1.86524v3.00683a1.69336,1.69336,0,0,0,1.6914,1.69141h4.96485a1.69336,1.69336,0,0,0,1.6914-1.69141V17.75928A2.76168,2.76168,0,0,0,17.38989,15.894c.106-.86425,1.53662-13.51758,1.53662-13.51758A.75113.75113,0,0,0,18.741,1.79248Zm-4.0669,18.97363a.19172.19172,0,0,1-.1914.19141H9.51782a.19171.19171,0,0,1-.1914-.19141v-2.4533a3.50994,3.50994,0,0,0,.41308.03631H14.261a3.5088,3.5088,0,0,0,.41308-.03631Zm1.22656-5.05371A1.55973,1.55973,0,0,1,14.261,16.84912H9.7395A1.55974,1.55974,0,0,1,8.09985,15.7124c-.068-.55548-.68194-5.964-1.11261-9.76562H17.01282C16.58228,9.74835,15.96869,15.15692,15.90063,15.7124ZM17.126,4.94678H6.874C6.7876,4.184,6.7124,3.51935,6.65845,3.04248h10.6831C17.2876,3.51935,17.2124,4.184,17.126,4.94678Z"/></svg>