<?xml version="1.0" encoding="utf-8"?>
<!-- Generator: Adobe Illustrator 16.0.0, SVG Export Plug-In . SVG Version: 6.00 Build 0)  -->
<!DOCTYPE svg PUBLIC "-//W3C//DTD SVG 1.1//EN" "http://www.w3.org/Graphics/SVG/1.1/DTD/svg11.dtd">
<svg version="1.1" id="Layer_1" xmlns="http://www.w3.org/2000/svg" xmlns:xlink="http://www.w3.org/1999/xlink" x="0px" y="0px"
	 width="491px" height="165px" viewBox="0 0 491 165" enable-background="new 0 0 491 165" xml:space="preserve">
<g>
	<path fill="#FFFFFF" d="M14.956,101.595c3.464,1.103,7.555,1.89,12.749,1.89c9.916,0,16.208-4.879,19.043-20.616l12.747-67.201
		h22.662L68.779,85.7c-5.036,26.909-16.684,37.771-40.759,37.771c-6.613,0-14.007-1.104-17.312-2.52L14.956,101.595z"/>
	<path fill="#FFFFFF" d="M83.854,121.739l14.635-76.957h22.662l-14.635,76.957H83.854z M101.637,24.167
		c0.157-7.712,6.138-12.908,13.063-12.908c6.609,0,11.331,4.408,11.331,11.176c0,8.024-6.138,12.746-13.377,12.746
		C106.359,35.181,101.637,30.93,101.637,24.167z"/>
	<path fill="#FFFFFF" d="M172.106,10l-9.126,43.909h0.314c5.667-6.768,14.321-10.855,23.763-10.855
		c16.054,0,23.293,13.059,23.293,26.749c0,25.025-16.368,53.67-50.989,53.67c-18.256,0-27.386-7.873-27.386-21.562
		c0-4.726,0.787-9.446,1.732-14.013L149.289,10H172.106z M156.212,89.316c-0.314,2.52-0.944,5.195-0.785,8.5
		c0.157,5.51,3.461,8.5,8.654,8.5c13.063,0,22.505-18.258,22.505-31.792c0-7.399-3.149-13.218-10.073-13.218
		c-8.184,0-16.208,8.338-18.884,21.716L156.212,89.316z"/>
</g>
<g>
	<polygon fill="#0BCD64" points="645.162,57.558 664,53.733 693.842,112.175 760,96.921 760,44.667 688.85,60.141 692.148,68.062 
		749.48,55.896 749.541,66.729 701.672,78.305 705.639,87.624 750.06,77.457 750.152,88.29 698.248,100.167 669.133,43.751 
		639.824,50.002 	"/>
	<path fill="#0BCD64" d="M702.131,128.564c1.339,5.854,7.169,9.514,13.019,8.174c5.852-1.34,9.512-7.167,8.174-13.021
		c-1.34-5.851-7.17-9.508-13.024-8.169C704.449,116.887,700.791,122.715,702.131,128.564z"/>
	<circle fill="#0BCD64" cx="748.598" cy="117.935" r="10.872"/>
</g>
<path fill="#F24B11" d="M722.027,14.775c-21.39,0-40.476,10.006-52.857,25.57l4.138-0.229l1.705,3.083
	c11.233-13.478,28.137-22.075,47.016-22.075c33.738,0,61.188,27.449,61.188,61.188c0,33.74-27.449,61.191-61.188,61.191
	c-33.739,0-61.189-27.451-61.189-61.191c0-7.195,1.258-14.105,3.553-20.525l-1.518-3.021l-4.511,1.033
	c-2.499,7.046-3.872,14.621-3.872,22.513c0,37.242,30.297,67.54,67.537,67.54c37.238,0,67.536-30.298,67.536-67.54
	C789.564,45.071,759.267,14.775,722.027,14.775z"/>
<g>
	<path fill="#FFFFFF" d="M221.439,122.257l21.403-111.736h22.66l-21.401,111.736H221.439z"/>
	<path fill="#FFFFFF" d="M265.941,122.257l14.636-76.956h22.661l-14.635,76.956H265.941z M283.725,24.685
		c0.157-7.714,6.139-12.903,13.062-12.903c6.609,0,11.331,4.408,11.331,11.172c0,8.026-6.138,12.749-13.377,12.749
		C288.445,35.702,283.725,31.453,283.725,24.685z"/>
	<path fill="#FFFFFF" d="M344.087,45.301l4.721,33.52c1.102,7.869,1.89,13.379,2.52,18.254h0.312
		c1.732-4.562,3.466-9.599,6.771-17.939l14.004-33.834h23.922l-27.541,55.238c-10.228,20.459-19.356,34.469-29.587,44.065
		c-8.972,8.5-19.672,12.276-24.708,13.061l-5.036-19.357c3.62-1.098,8.656-2.985,13.062-6.134c5.194-3.62,9.599-8.187,12.433-13.381
		c0.787-1.103,0.787-2.041,0.474-3.772l-15.267-69.719h23.92V45.301z"/>
	<path fill="#FFFFFF" d="M445.519,122.257c0.157-4.565,0.63-9.755,1.104-15.264h-0.474c-7.082,12.743-16.842,16.993-25.811,16.993
		c-13.849,0-23.291-10.696-23.291-26.754c0-25.962,17.153-53.664,55.081-53.664c9.126,0,19.041,1.731,25.495,3.777l-8.187,40.288
		c-1.887,9.914-3.302,25.024-2.987,34.622L445.519,122.257L445.519,122.257z M452.128,61.353c-1.731-0.316-3.935-0.63-6.138-0.63
		c-14.639,0-25.338,17.939-25.338,32.265c0,7.552,2.989,12.744,9.284,12.744c6.769,0,15.108-7.713,18.572-26.597L452.128,61.353z"/>
</g>
</svg>
