<?xml version="1.0" encoding="utf-8"?>
<!-- Generator: Adobe Illustrator 16.0.0, SVG Export Plug-In . SVG Version: 6.00 Build 0)  -->
<!DOCTYPE svg PUBLIC "-//W3C//DTD SVG 1.1//EN" "http://www.w3.org/Graphics/SVG/1.1/DTD/svg11.dtd">
<svg version="1.1" id="Layer_1" xmlns="http://www.w3.org/2000/svg" xmlns:xlink="http://www.w3.org/1999/xlink" x="0px" y="0px"
	 width="216.469px" height="77.305px" viewBox="0 0 216.469 77.305" enable-background="new 0 0 216.469 77.305"
	 xml:space="preserve">
<g>
	<path fill-rule="evenodd" clip-rule="evenodd" fill="#FFFFFF" d="M73.175,4c0,6.263,0,12.254,0,18.435
		c1.094-0.309,1.951-0.582,2.822-0.791c4.744-1.131,9.298-0.761,13.582,1.742c3.673,2.146,5.637,5.576,6.749,9.471
		c1.115,3.904,1.328,7.929,0.675,11.98c-1.468,9.099-7.324,14.547-16.37,15.463c-5.716,0.581-11.388-0.213-16.98-1.562
		c-1.104-0.267-1.361-0.72-1.356-1.74c0.033-5.976,0.016-11.951,0.016-17.926c0-10.521,0.013-21.042-0.017-31.562
		c-0.003-1.223,0.11-1.871,1.659-2.016C66.933,5.217,69.876,4.558,73.175,4z M73.156,50.759c1.378,0.146,2.633,0.333,3.894,0.398
		c3.551,0.188,6.738-1.702,7.984-4.802c1.439-3.578,1.412-7.268,0.449-10.942c-0.653-2.492-2.213-4.279-4.816-4.808
		c-2.241-0.454-4.495-0.229-6.554,0.812c-0.474,0.239-0.902,1.069-0.915,1.638c-0.083,3.62-0.042,7.241-0.042,10.863
		C73.156,46.152,73.156,48.385,73.156,50.759z"/>
	<path fill-rule="evenodd" clip-rule="evenodd" fill="#FFFFFF" d="M142.803,21.851c3.778,0,7.291-0.042,10.798,0.06
		c0.389,0.011,0.933,0.791,1.099,1.312c1.847,5.761,3.615,11.546,5.444,17.312c0.535,1.687,1.195,3.333,2.165,5.013
		c0.51-1.498,1.075-2.979,1.518-4.496c1.765-6.053,3.48-12.119,5.256-18.168c0.115-0.392,0.561-0.975,0.861-0.98
		c3.461-0.069,6.924-0.044,10.669-0.044c-0.43,1.464-0.783,2.721-1.167,3.968c-3.929,12.759-8.44,25.297-14.369,37.281
		c-1.965,3.97-4.497,7.5-8.988,8.866c-4.219,1.283-8.462,0.918-12.64-0.373c-0.705-0.219-1.074-0.521-0.84-1.44
		c0.565-2.216,0.986-4.47,1.421-6.716c0.237-1.229,1.023-0.769,1.76-0.694c1.904,0.195,3.839,0.603,5.716,0.43
		c2.958-0.272,4.072-2.774,5.118-5.122c0.148-0.336-0.209-0.948-0.425-1.387c-5.275-10.707-9.699-21.746-13.003-33.225
		C143.072,23.018,142.981,22.581,142.803,21.851z"/>
	<path fill-rule="evenodd" clip-rule="evenodd" fill="#FFFFFF" d="M187.597,31.355c-0.456-2.679-0.927-5.175-1.26-7.689
		c-0.052-0.396,0.446-1.186,0.811-1.27c6.352-1.47,12.758-2.385,19.182-0.547c5.537,1.584,8.359,5.447,8.614,10.787
		c0.388,8.149,0.286,16.323,0.415,24.486c0.016,0.957-0.242,1.396-1.304,1.615c-6.983,1.438-13.974,2.241-21.101,1.129
		c-7.155-1.115-11.203-6.848-9.992-14.028c0.791-4.697,3.61-7.346,7.938-8.694c3.802-1.186,7.68-1.536,11.634-0.929
		c0.641,0.098,1.299,0.075,1.933,0.107c0.597-3.536-1.673-6.087-5.411-6.226c-3.484-0.13-6.928,0.089-10.286,1.129
		C188.442,31.326,188.077,31.306,187.597,31.355z M204.694,51.882c0-2.721,0.046-4.914-0.041-7.101
		c-0.015-0.382-0.587-1.068-0.89-1.062c-2.471,0.063-4.962,0.098-7.399,0.465c-1.766,0.266-2.811,1.869-2.798,3.528
		c0.014,1.67,0.914,3.188,2.658,3.467C198.947,51.617,201.732,51.658,204.694,51.882z"/>
	<path fill-rule="evenodd" clip-rule="evenodd" fill="#FFFFFF" d="M32.093,28.131c0,5.052,0.067,10.105-0.022,15.156
		c-0.067,3.795-0.621,7.494-2.773,10.799c-1.95,2.992-4.769,4.827-8.096,5.603c-6.941,1.616-13.743,1.224-20.147-2.32
		c-0.951-0.526-1.354-1-0.81-2.125c1.041-2.152,1.962-4.364,2.88-6.573c0.331-0.796,0.668-0.92,1.494-0.57
		c2.097,0.886,4.2,1.895,6.405,2.344c1.729,0.353,3.653,0.148,5.421-0.181c2.192-0.408,3.86-2.817,3.961-5.43
		c0.156-4.024,0.255-8.054,0.28-12.082c0.043-7.042,0.047-14.084-0.019-21.126c-0.013-1.374,0.413-1.75,1.744-1.702
		c2.65,0.098,5.311,0.12,7.958-0.006c1.486-0.071,1.776,0.486,1.76,1.833c-0.065,5.459-0.027,10.92-0.027,16.38
		C32.099,28.131,32.096,28.131,32.093,28.131z"/>
	<path fill-rule="evenodd" clip-rule="evenodd" fill="#FFFFFF" d="M105.389,5.732c3.556-0.562,6.966-1.101,10.579-1.672
		c0.048,0.761,0.123,1.392,0.123,2.023c0.007,12.3,0.005,24.6,0.006,36.9c0,0.612-0.002,1.226,0.009,1.838
		c0.068,3.979,1.082,5.696,4.918,6.298c0.242,0.038,0.478,0.141,0.933,0.278c-0.485,2.81-0.947,5.604-1.488,8.382
		c-0.047,0.242-0.635,0.562-0.946,0.538c-3.557-0.279-7.106-0.557-10.198-2.684c-2.838-1.953-3.963-4.85-3.99-8.022
		c-0.117-14.29-0.061-28.581-0.062-42.872C105.272,6.443,105.339,6.145,105.389,5.732z"/>
	<path fill-rule="evenodd" clip-rule="evenodd" fill="#FFFFFF" d="M127.819,21.851c3.371,0,6.63-0.024,9.888,0.04
		c0.309,0.006,0.653,0.542,0.886,0.895c0.119,0.178,0.026,0.496,0.026,0.751c0.001,11.424,0.001,22.848-0.003,34.272
		c0,0.499-0.051,0.998-0.083,1.594c-3.6,0-7.094,0-10.714,0C127.819,46.971,127.819,34.513,127.819,21.851z"/>
	<path fill-rule="evenodd" clip-rule="evenodd" fill="#FFFFFF" d="M52.48,59.436c-3.587,0-7.038,0-10.608,0
		c0-12.493,0-24.912,0-37.46c3.497,0,6.985,0,10.608,0C52.48,34.4,52.48,46.857,52.48,59.436z"/>
	<path fill-rule="evenodd" clip-rule="evenodd" fill="#FFFFFF" d="M139.519,11.216c0.009,3.807-2.595,6.416-6.432,6.446
		c-3.782,0.029-6.593-2.781-6.564-6.562c0.028-3.582,2.822-6.342,6.451-6.374C136.842,4.695,139.51,7.338,139.519,11.216z"/>
	<path fill-rule="evenodd" clip-rule="evenodd" fill="#FFFFFF" d="M53.521,11.307c0.352,3.416-2.43,6.303-6.471,6.336
		c-3.763,0.031-6.422-2.711-6.454-6.48c-0.03-3.638,2.811-6.442,6.521-6.437C50.996,4.733,53.522,7.329,53.521,11.307z"/>
</g>
</svg>
