<svg xmlns="http://www.w3.org/2000/svg" viewBox="0 0 37.832 39.5"><defs><style>.a{fill:#0e3368;}.b{fill:#fff;}.c{fill:#4ccd8a;}</style></defs><title>i_service_client</title><path class="a" d="M34.821,12.34a16.441,16.441,0,0,0-31.814-.107,1.014,1.014,0,0,0-.006.11,3.913,3.913,0,0,0-3,3.8v6.18a3.917,3.917,0,0,0,3.913,3.913H6.381A2.018,2.018,0,0,0,8.4,24.215V14.242a2.019,2.019,0,0,0-2.017-2.017H5.1a14.424,14.424,0,0,1,27.6,0H31.451a2.019,2.019,0,0,0-2.017,2.017v9.973a2.018,2.018,0,0,0,2.017,2.016h1.366c-.4,5.96-4.73,8.406-8.764,8.734a3.213,3.213,0,0,0-2.923-1.9H16.7a3.215,3.215,0,0,0,0,6.43H21.13a3.219,3.219,0,0,0,3.143-2.548c5.229-.445,10.194-3.876,10.549-10.836a3.913,3.913,0,0,0,3.01-3.8v-6.18A3.913,3.913,0,0,0,34.821,12.34ZM6.4,14.242v9.973a.016.016,0,0,1-.017.016H3.913A1.915,1.915,0,0,1,2,22.318v-6.18a1.915,1.915,0,0,1,1.913-1.913ZM21.13,37.5H16.7a1.215,1.215,0,1,1,0-2.43H21.13a1.215,1.215,0,1,1,0,2.43Zm14.7-15.182a1.915,1.915,0,0,1-1.913,1.913l-2.485-.016.017-9.99h2.468a1.915,1.915,0,0,1,1.913,1.913Z"/><path class="a" d="M18.916,26.7a7.414,7.414,0,0,0,6.958-4.778,1,1,0,0,0-1.865-.721,5.456,5.456,0,0,1-10.186,0,1,1,0,0,0-1.865.721A7.414,7.414,0,0,0,18.916,26.7Z"/><path class="b" d="M21.13,35.07H16.7a1.215,1.215,0,1,0,0,2.43H21.13a1.215,1.215,0,1,0,0-2.43Z"/><path class="a" d="M18.916,26.7a7.414,7.414,0,0,0,6.958-4.778,1,1,0,0,0-1.865-.721,5.456,5.456,0,0,1-10.186,0,1,1,0,0,0-1.865.721A7.414,7.414,0,0,0,18.916,26.7Z"/><path class="c" d="M33.919,14.225H31.451l-.017,9.99,2.485.016a1.915,1.915,0,0,0,1.913-1.913v-6.18A1.915,1.915,0,0,0,33.919,14.225Z"/><path class="c" d="M2,16.138v6.18a1.915,1.915,0,0,0,1.913,1.913H6.381a.016.016,0,0,0,.017-.016V14.242l-2.485-.017A1.915,1.915,0,0,0,2,16.138Z"/><path class="a" d="M18.916,26.7a7.414,7.414,0,0,0,6.958-4.778,1,1,0,0,0-1.865-.721,5.456,5.456,0,0,1-10.186,0,1,1,0,0,0-1.865.721A7.414,7.414,0,0,0,18.916,26.7Z"/></svg>