<?xml version="1.0" encoding="utf-8"?>
<!-- Generator: Adobe Illustrator 16.0.0, SVG Export Plug-In . SVG Version: 6.00 Build 0)  -->
<!DOCTYPE svg PUBLIC "-//W3C//DTD SVG 1.1//EN" "http://www.w3.org/Graphics/SVG/1.1/DTD/svg11.dtd">
<svg version="1.1" id="Layer_1" xmlns="http://www.w3.org/2000/svg" xmlns:xlink="http://www.w3.org/1999/xlink" x="0px" y="0px"
	 width="500px" height="500px" viewBox="0 0 500 500" enable-background="new 0 0 500 500" xml:space="preserve">
<g>
	<path fill="#F1F3F4" d="M186.683,258.675c-18.459,5.369-33.933,9.699-49.291,14.401c-8.93,2.734-14.261,9.103-14.658,18.479
		c-0.372,8.753,3.451,16.063,11.818,19.242c5.554,2.11,7.724,5.859,9.63,10.761c8.88,22.821,18.061,45.527,26.866,68.378
		c3.689,9.57,9.767,12.828,19.742,9.931c47.379-13.762,94.785-27.444,142.256-40.887c10.023-2.838,13.547-8.335,11.522-18.626
		c-4.586-23.315-8.552-46.751-12.887-70.117c-1.154-6.225-1.381-11.628,2.617-17.586c5.859-8.741,3.654-18.264-4.642-25.497
		c-3.132-2.73-5.706-4.864-5.637-9.678c0.289-20.128,0.122-40.262,0.137-60.394c0.002-3.406,0.412-5.894,4.646-7.385
		c34.05-11.997,47.275-39.75,51.978-72.41c3.846-26.728-13.462-53.511-38.776-63.923c-24.859-10.225-52.942-3.183-70.604,17.704
		c-29.735,35.162-10.094,102.701,34.627,117.753c6.525,2.196,8.569,4.931,8.447,11.413c-0.335,17.93-0.371,35.876,0.021,53.803
		c0.142,6.366-2.291,8.989-8.198,10.572c-18.36,4.916-36.674,10.06-54.811,15.733c-6.473,2.024-11.612,1.673-17.526-1.83
		c-16.987-10.062-34.287-19.603-51.589-29.117c-12.375-6.806-24.498-3.882-30.241,6.894c-5.646,10.592-1.815,21.447,10.194,28.504
		C169.489,249.001,176.759,253.029,186.683,258.675z"/>
	<path fill-rule="evenodd" clip-rule="evenodd" fill="#687786" d="M186.683,258.675c-9.923-5.646-17.193-9.673-24.357-13.881
		c-12.009-7.057-15.84-17.912-10.194-28.504c5.743-10.776,17.866-13.7,30.241-6.894c17.303,9.515,34.603,19.055,51.589,29.117
		c5.915,3.502,11.054,3.854,17.526,1.83c18.137-5.673,36.45-10.817,54.811-15.733c5.907-1.583,8.34-4.207,8.198-10.572
		c-0.393-17.927-0.356-35.874-0.021-53.803c0.122-6.482-1.922-9.217-8.447-11.413c-44.721-15.053-64.362-82.592-34.627-117.753
		c17.661-20.887,45.744-27.929,70.604-17.704c25.314,10.412,42.622,37.195,38.776,63.923c-4.702,32.661-17.928,60.414-51.978,72.41
		c-4.234,1.491-4.645,3.979-4.646,7.385c-0.015,20.132,0.152,40.266-0.137,60.394c-0.069,4.813,2.505,6.947,5.637,9.678
		c8.296,7.233,10.501,16.756,4.642,25.497c-3.998,5.958-3.771,11.361-2.617,17.586c4.335,23.366,8.301,46.802,12.887,70.117
		c2.024,10.291-1.499,15.788-11.522,18.626c-47.471,13.442-94.877,27.125-142.256,40.887c-9.975,2.897-16.052-0.36-19.742-9.931
		c-8.806-22.851-17.986-45.557-26.866-68.378c-1.907-4.901-4.076-8.65-9.63-10.761c-8.367-3.179-12.19-10.489-11.818-19.242
		c0.397-9.376,5.728-15.744,14.658-18.479C152.75,268.374,168.224,264.044,186.683,258.675z M334.358,342.116
		c-4.292-23.542-8.796-47.96-13.161-72.405c-0.939-5.276-3.41-6.427-8.403-4.749c-6.913,2.323-14.041,4-21.062,6.012
		c-43.533,12.473-87.071,24.929-130.574,37.502c-4.562,1.319-10.812,1.529-7.503,9.661c8.953,21.991,17.69,44.073,26.282,66.209
		c2.02,5.203,5.069,6.374,10.157,4.914c46.331-13.316,92.692-26.522,139.027-39.827C332.194,348.551,335.89,347.777,334.358,342.116
		z M212.674,261.434c-4.502,1.604-6.111,2.275-7.774,2.754c-20.698,5.941-41.411,11.834-62.104,17.792
		c-6.266,1.806-10.804,5.393-9.237,12.591c1.612,7.406,7.384,8.179,13.75,7.098c1.438-0.242,2.885-0.5,4.284-0.903
		c54.369-15.639,108.724-31.335,163.112-46.9c7.295-2.089,14.104-5.017,11.413-13.977c-2.72-9.058-10.373-7.394-17.374-5.401
		c-20.012,5.695-40.093,11.162-59.984,17.246c-5.817,1.78-10.397,1.094-15.514-1.849c-18.053-10.381-36.369-20.304-54.44-30.653
		c-6.339-3.631-12.603-5.916-17.084,1.598c-4.989,8.365,1.202,12.636,7.62,16.248C182.975,244.752,196.619,252.41,212.674,261.434z
		 M318.637,28.803c-0.586-4.892-4.419-4.613-8.155-4.292c-13.939,1.201-36.683,23.006-38.612,37.008
		c-0.464,3.367-0.656,7.035,3.294,8.331c4.281,1.405,5.823-1.995,6.806-5.244c4.738-15.671,15.581-25.061,30.698-30.087
		C315.483,33.584,318.447,32.981,318.637,28.803z M281.023,83.929c-0.62-2.05-1.965-4.195-4.998-3.702
		c-2.713,0.44-4.45,2.293-4.113,5.292c0.328,2.941,2.331,4.584,5.092,4.335C279.865,89.594,281.139,87.413,281.023,83.929z"/>
	<path fill-rule="evenodd" clip-rule="evenodd" fill="#DEE4EA" d="M334.358,342.116c1.531,5.661-2.164,6.435-5.237,7.316
		c-46.335,13.305-92.696,26.511-139.027,39.827c-5.088,1.46-8.138,0.289-10.157-4.914c-8.591-22.136-17.329-44.218-26.282-66.209
		c-3.31-8.132,2.941-8.342,7.503-9.661c43.503-12.573,87.042-25.029,130.574-37.502c7.021-2.012,14.148-3.688,21.062-6.012
		c4.993-1.678,7.464-0.527,8.403,4.749C325.562,294.156,330.066,318.574,334.358,342.116z M303.952,339.188
		c-1.926-1.61-3.668-3.532-5.802-4.783c-13.258-7.765-27.646-9.152-42.402-6.361c-19.784,3.738-36.707,12.358-47.235,30.5
		c-1.296,2.235-4.263,5.482-0.98,7.748c3.58,2.471,5.963-0.742,7.77-3.643c3.795-6.089,9.215-10.426,15.434-13.656
		c20.713-10.764,41.976-17.26,64.948-6.911C299.244,343.687,301.854,343.199,303.952,339.188z M221.956,323.139
		c4.008-0.998,6.439-3.227,5.864-7.578c-0.49-3.715-2.697-5.869-6.544-5.495c-3.567,0.347-6.268,2.342-5.991,6.162
		C215.562,320.054,217.587,322.941,221.956,323.139z M268.935,305.34c-1.063-2.537-1.651-6.006-5.902-6.192
		c-3.784-0.165-6.47,1.592-6.774,5.5c-0.312,4.062,1.289,7.44,5.916,7.417C265.815,312.045,267.986,309.522,268.935,305.34z"/>
	<path fill-rule="evenodd" clip-rule="evenodd" fill="#DEE4EA" d="M212.674,261.434c-16.055-9.023-29.699-16.681-43.333-24.357
		c-6.417-3.612-12.608-7.883-7.62-16.248c4.482-7.514,10.745-5.229,17.084-1.598c18.071,10.349,36.387,20.271,54.44,30.653
		c5.117,2.943,9.697,3.629,15.514,1.849c19.892-6.083,39.973-11.551,59.984-17.246c7.001-1.993,14.654-3.657,17.374,5.401
		c2.691,8.959-4.118,11.888-11.413,13.977c-54.389,15.565-108.743,31.262-163.112,46.9c-1.399,0.403-2.846,0.661-4.284,0.903
		c-6.366,1.081-12.138,0.309-13.75-7.098c-1.567-7.198,2.971-10.785,9.237-12.591c20.693-5.958,41.406-11.851,62.104-17.792
		C206.562,263.709,208.171,263.038,212.674,261.434z"/>
	<path fill-rule="evenodd" clip-rule="evenodd" fill="#F1F3F4" d="M318.637,28.803c-0.189,4.179-3.153,4.781-5.97,5.716
		c-15.117,5.026-25.96,14.416-30.698,30.087c-0.982,3.25-2.524,6.649-6.806,5.244c-3.95-1.295-3.758-4.963-3.294-8.331
		c1.93-14.002,24.673-35.808,38.612-37.008C314.218,24.189,318.051,23.911,318.637,28.803z"/>
	<path fill-rule="evenodd" clip-rule="evenodd" fill="#F1F3F4" d="M281.023,83.929c0.115,3.483-1.158,5.665-4.02,5.924
		c-2.761,0.249-4.764-1.394-5.092-4.335c-0.337-2.999,1.4-4.852,4.113-5.292C279.059,79.734,280.403,81.879,281.023,83.929z"/>
	<path fill-rule="evenodd" clip-rule="evenodd" fill="#687786" d="M303.952,339.188c-2.098,4.011-4.708,4.498-8.269,2.894
		c-22.972-10.349-44.234-3.853-64.948,6.911c-6.218,3.23-11.638,7.567-15.434,13.656c-1.807,2.9-4.19,6.113-7.77,3.643
		c-3.283-2.266-0.315-5.513,0.98-7.748c10.528-18.142,27.451-26.762,47.235-30.5c14.757-2.791,29.145-1.403,42.402,6.361
		C300.284,335.656,302.026,337.578,303.952,339.188z"/>
	<path fill-rule="evenodd" clip-rule="evenodd" fill="#687786" d="M221.956,323.139c-4.368-0.197-6.394-3.085-6.67-6.911
		c-0.277-3.82,2.424-5.815,5.991-6.162c3.847-0.374,6.054,1.78,6.544,5.495C228.395,319.912,225.963,322.141,221.956,323.139z"/>
	<path fill-rule="evenodd" clip-rule="evenodd" fill="#687786" d="M268.935,305.34c-0.948,4.183-3.119,6.705-6.761,6.725
		c-4.627,0.023-6.229-3.355-5.916-7.417c0.305-3.908,2.99-5.665,6.774-5.5C267.283,299.334,267.871,302.803,268.935,305.34z"/>
</g>
</svg>
