
<svg version="1.1" id="Layer_1" xmlns="http://www.w3.org/2000/svg" xmlns:xlink="http://www.w3.org/1999/xlink" 
	 viewBox="0 0 500 200" enable-background="new 0 0 500 200" xml:space="preserve">
<g id="BACKGROUND">
</g>
<g id="OBJECTS">
	<g>
		<g>
			<g>
				<path fill="#F24B11" d="M290.938,26.14c-0.005-0.172,0.005-0.345,0.013-0.518c0.014-0.272-0.045,0.408,0.027-0.202
					c0.031-0.257,0.077-0.511,0.125-0.764c0.232-1.229,0.697-2.294,1.656-3.24c2.2-2.167,6.111-0.595,7.626,1.535
					c2.183,3.071,0.908,7.75-1.3,10.447c-0.914,1.115-1.916,2.09-2.691,3.318c-1.078,1.701-1.283,3.818-1.301,5.779
					c-0.024,2.644,4.064,2.391,4.089-0.236c0.017-1.852,0.443-3.289,1.603-4.617c1.344-1.541,2.628-3,3.462-4.899
					c2.077-4.728,1.838-10.558-2.286-14.09c-3.506-3.002-8.832-3.024-12.26,0.04c-2.031,1.814-2.913,5.03-2.852,7.685
					C286.91,29.021,291,28.775,290.938,26.14L290.938,26.14z"/>
			</g>
			<circle fill="#F24B11" cx="298.109" cy="48.181" r="2.418"/>
		</g>
		<g>
			<g>
				<path fill="#F24B11" d="M228.556,13.792c0.109-0.193,0.232-0.379,0.356-0.564c0.195-0.292-0.319,0.42,0.164-0.205
					c0.204-0.264,0.422-0.514,0.643-0.762c1.069-1.205,2.287-2.077,3.971-2.487c3.865-0.942,7.15,3.38,7.416,6.735
					c0.382,4.836-4.115,9.167-8.34,10.689c-1.746,0.629-3.499,1.045-5.168,1.889c-2.314,1.169-3.941,3.374-5.256,5.529
					c-1.773,2.907,2.915,5.33,4.676,2.441c1.243-2.037,2.664-3.342,4.823-4.045c2.505-0.814,4.887-1.58,7.064-3.128
					c5.42-3.854,9.008-10.457,6.784-17.086c-1.891-5.635-7.766-9.18-13.581-8.057c-3.443,0.665-6.543,3.636-8.23,6.611
					C222.2,14.313,226.882,16.745,228.556,13.792L228.556,13.792z"/>
			</g>
			<circle fill="#F24B11" cx="221.919" cy="42.894" r="3.113"/>
		</g>
		<g>
			<g>
				<path fill="#F24B11" d="M161.529,63.33c-0.069-0.122-0.147-0.239-0.225-0.356c-0.123-0.185,0.202,0.265-0.104-0.129
					c-0.128-0.167-0.266-0.324-0.405-0.481c-0.675-0.76-1.443-1.31-2.506-1.569c-2.438-0.594-4.511,2.133-4.679,4.25
					c-0.241,3.052,2.596,5.784,5.262,6.745c1.102,0.396,2.208,0.66,3.261,1.191c1.46,0.738,2.487,2.128,3.317,3.489
					c1.119,1.834-1.839,3.363-2.951,1.541c-0.784-1.285-1.681-2.109-3.043-2.553c-1.581-0.514-3.083-0.997-4.457-1.974
					c-3.42-2.432-5.684-6.598-4.281-10.781c1.193-3.556,4.9-5.792,8.57-5.084c2.172,0.419,4.129,2.294,5.193,4.171
					C165.539,63.659,162.584,65.193,161.529,63.33L161.529,63.33z"/>
			</g>
			<circle fill="#F24B11" cx="165.716" cy="81.694" r="1.965"/>
		</g>
		<g>
			<g>
				<path fill="#333333" d="M190.457,14.549c-0.021-0.24-0.061-0.48-0.1-0.719c-0.062-0.377,0.128,0.56-0.07-0.276
					c-0.083-0.352-0.188-0.698-0.295-1.043c-0.52-1.672-1.336-3.082-2.822-4.244c-3.408-2.664-8.599,0.146-10.366,3.352
					c-2.545,4.622-0.028,10.928,3.476,14.329c1.45,1.406,3,2.604,4.275,4.187c1.77,2.196,2.395,5.109,2.732,7.835
					c0.456,3.675-5.276,3.975-5.727,0.324c-0.319-2.574-1.143-4.505-2.967-6.168c-2.118-1.929-4.136-3.756-5.6-6.265
					c-3.644-6.248-4.242-14.398,0.932-19.971c4.399-4.738,11.808-5.619,17.067-1.901c3.115,2.201,4.856,6.535,5.194,10.238
					C196.522,17.914,190.792,18.225,190.457,14.549L190.457,14.549z"/>
			</g>
			<circle fill="#333333" cx="183.996" cy="46.362" r="3.386"/>
		</g>
		<g>
			<g>
				<path fill="#333333" d="M335.582,56.623c0.038-0.159,0.088-0.316,0.137-0.473c0.078-0.248-0.141,0.363,0.074-0.179
					c0.09-0.229,0.193-0.451,0.3-0.672c0.511-1.074,1.196-1.941,2.308-2.577c2.548-1.459,5.764,0.933,6.639,3.258
					c1.262,3.352-1.041,7.345-3.726,9.289c-1.11,0.804-2.268,1.458-3.279,2.397c-1.402,1.303-2.105,3.2-2.596,4.999
					c-0.664,2.425,3.158,3.183,3.815,0.773c0.465-1.699,1.206-2.916,2.592-3.856c1.611-1.09,3.144-2.122,4.372-3.665
					c3.055-3.843,4.248-9.261,1.313-13.508c-2.496-3.61-7.389-4.921-11.282-2.934c-2.307,1.176-3.897,3.918-4.483,6.375
					C331.181,58.294,335,59.06,335.582,56.623L335.582,56.623z"/>
			</g>
			<circle fill="#333333" cx="336.834" cy="78.623" r="2.298"/>
		</g>
	</g>
	<g>
		<ellipse opacity="0.1" fill="#29B2B2" enable-background="new    " cx="223.977" cy="190.891" rx="20.366" ry="4.153"/>
		<g>
			<path fill="#EFBDCA" d="M213.727,140.264c0,0-6.55,4.407-6.898,5.244c-0.346,0.839,1.617,0.983,6.423,2.892
				c4.806,1.907,13.152,11.833,15.122,13.933c1.972,2.101,6.453,4.004,7.061,4.521c0.608,0.516,1.426,3.156,1.307,4.041
				c-0.12,0.887-2.04,2.31-2.944,1.341c-0.904-0.968-1.213,0.204-1.64,2.261c-0.427,2.059-5.497,7.379-6.894,7.219
				c-1.398-0.159-0.455-2.825,0.406-4.468s0.933-4.813,0.868-7.948c-0.062-3.135-3.448-5.203-3.448-5.203
				c-9.254-5.126-26.754-14.175-28.097-17.533c-0.788-1.971,2.534-7.191,2.534-7.191l4.457-6.227"/>
			<path fill="#F24B11" d="M235.435,166.854c-0.553-0.471-4.303-2.088-6.462-3.956c-0.459,1.213-1.743,2.84-2.868,4.544
				c0.084,0.328,0.425,1.5,0.432,1.857c0.066,3.135-0.006,6.306-0.868,7.948c-0.86,1.643-1.804,4.309-0.406,4.469
				c1.397,0.159,6.468-5.161,6.894-7.22c0.427-2.058,0.735-3.229,1.64-2.261c0.904,0.969,2.825-0.453,2.944-1.34
				C236.861,170.012,236.043,167.371,235.435,166.854z"/>
			<path fill="#FDC8D4" d="M216.328,134.271c0,0,1.164,15.711,2.611,18.766c1.445,3.059,3.021,26.783,2.931,28.74
				c-0.091,1.959-2.277,6.637-3.694,9.331c-1.419,2.692-8.64,4.774-6.637,5.966c2.001,1.191,8.22-0.51,9.589-2.351
				c0,0,2.375-2.169,2.484-1.06c0,0,0.073,1.416,0.455,1.385s3.219,0.345,3.33-1.971c0.109-2.312,1.124-3.502,0.189-5.546
				c-0.934-2.044-1.205-4.494-0.77-8.38c0.432-3.884,6.397-12.795,0.229-26.391c0,0,0.238-7.025,2.768-15.795"/>
			<path fill="#F24B11" d="M227.588,187.532c-0.434-0.948-0.717-1.993-0.862-3.221c-3.111,1.275-4.784,1.096-5.685,0.556
				c-0.786,2.088-1.977,4.554-2.865,6.241c-1.419,2.692-8.64,4.774-6.637,5.966c2.001,1.191,8.22-0.51,9.59-2.35
				c0,0,2.375-2.17,2.483-1.061c0,0,0.074,1.416,0.455,1.385c0.382-0.031,3.219,0.345,3.331-1.97
				C227.507,190.766,228.522,189.576,227.588,187.532z"/>
		</g>
		<path fill="#EFBDCA" d="M231.858,65.102c0,0,1.45-1.185,2.954,0.231c1.505,1.418-1.463,4.99-2.535,4.908
			c-1.072-0.081-1.102,0.852-1.331,2.647c-0.228,1.795-1.827,3.695-7.262,2.892c-5.435-0.805-0.564-1.079,0.567-4.643
			C225.382,67.574,231.858,65.102,231.858,65.102z"/>
		<path fill="#5BBF6D" d="M230.946,72.889c0,0-2.898,3.887-7.985,1.535c0,0-5.764,3.247-7.931,6.066
			c-2.167,2.818-2.179,8.618-1.201,13.149c0.978,4.531,0.013,6.113,0.013,6.113s-4.397,11.985-13.679,27.424
			c0,0-5.351,9.123,5.169,13.314c10.521,4.19,18.593-1.25,28.702,3.744c0,0,7.54,5.162,4.707-12.863
			c-1.667-10.611,0.966-13.509-5.22-25.244c0,0-3.118-6.157-0.704-11.347c2.542-5.463,2.727-2.922,2.727-2.922
			c0.15,1.341,0.386,2.287,0.386,2.287s4.318-2.224,6.733-3.99c0,0-1.022-8.915-4.436-10.591
			C235.513,78.23,231.429,77.134,230.946,72.889z"/>
		<path fill="#53A55E" d="M223.282,74.223c0,0,3.316,2.123,7.693-1.56c0,0,0.25,2.184,1.557,3.638c0,0-3.347,4.66-7.284-0.176
			c0,0-2.367,3.417-4.74-0.096"/>
		<g>
			<path fill="#FDC8D4" d="M232.021,65.58c0,0-0.648,4.766-4.821,5.734c-4.172,0.968-6.292,0.27-5.578-7.894
				c0.712-8.163,3.734-8.268,7.047-6.961C231.984,57.767,235.257,57.598,232.021,65.58z"/>
			<path fill="#F24B11" d="M238.126,59.139c-0.82-4.375-5.072-4.719-5.072-4.719c-6.462-7.75-9.8-0.444-13.159,0.602
				c-3.359,1.046-6.581,1.32-6.671,6.98c-0.012,0.677-0.036,1.235-0.076,1.719c-0.047,0.41-0.332,2.009-1.937,3.524
				c-0.143,0.135-0.241,0.248-0.321,0.351c-1.223,1.371-1.869,2.678-2.156,3.898l-0.004-0.002c0,0-0.625,1.782-0.411,4.313
				c0.213,2.532,1,3.965-0.196,6.115c-0.992,1.781-1.889,5.542-0.039,7.526c0.062,0.068,0.131,0.133,0.202,0.198
				c0.058,0.053,0.111,0.106,0.173,0.155c0.135,0.107,0.282,0.207,0.443,0.299c0.064,0.038,0.138,0.069,0.208,0.104
				c0.127,0.064,0.261,0.124,0.402,0.179c0.03,0.012,0.056,0.027,0.086,0.039c0.016,0.005,0.031,0.004,0.045,0.009
				c0.624,0.223,1.382,0.37,2.314,0.409c4.381,0.186,6.172-1.454,6.744-3.324c0-0.002,0.002-0.003,0.002-0.005
				c0.985-2.603-0.002-5.833-0.341-7.352c-0.238-1.063,0.31-1.736,0.661-2.048c0.699-0.557,1.624-1.12,2.722-2.002
				c2.875-2.307,2.464-4.546,2.464-4.546s-0.519,0.169-1.471-0.755c-0.952-0.925-1.198-3.52-1.239-4.543
				c-0.03-0.731,0.466-1.365,0.754-1.672c0.039-0.04,0.076-0.079,0.114-0.118c0.049-0.047,0.085-0.08,0.085-0.08l-0.01,0.002
				c2.135-2.222,2.18-4.292,3.076-5.796c0.734-1.233,1.968-1.041,1.968-1.041c4.097-0.035,3.28,5.115,3.372,7.363
				c0.021,0.222,0.136,0.988,0.701,0.95c0.293-0.02,0.638-0.22,0.997-0.382c0.062-0.019,1.15-0.325,1.398,0.356
				c0.256,0.701-0.27,1.544-0.95,2.202c-0.68,0.658-2.7,2.875-1.976,4.187C238.683,69.621,238.945,63.514,238.126,59.139z"/>
		</g>
		<circle fill="#333333" cx="200.708" cy="132.982" r="5.158"/>
		<path fill="#53A55E" d="M222.128,112.851c0,0-0.171,11.194,6.742,16.052s1.775,9.529-1.869,6.166s-10.744-5.045-8.502-20.646
			c2.242-15.602,4.006-8.607,4.006-8.607L222.128,112.851z"/>
		<path fill="#53A55E" d="M223.977,93.028c0,0,3.889,2.837,6.341,1.121c2.452-1.716-2.522,7.473-6.341,2.808"/>
		<g>
			<path fill="#333333" d="M195.48,83.816c0.067-0.362,0.162-0.719,0.254-1.075c0.148-0.563-0.274,0.829,0.146-0.41
				c0.176-0.522,0.386-1.031,0.598-1.54c1.028-2.461,2.468-4.481,4.888-6.03c5.549-3.55,13.019,1.457,15.237,6.572
				c3.196,7.373-1.526,16.574-7.328,21.228c-2.399,1.924-4.921,3.517-7.083,5.734c-3,3.075-4.366,7.403-5.268,11.488
				c-1.218,5.507,7.43,6.784,8.638,1.312c0.853-3.858,2.38-6.667,5.386-8.927c3.487-2.621,6.809-5.102,9.389-8.695
				c6.423-8.949,8.501-21.223,1.455-30.417c-5.989-7.815-17.097-10.215-25.606-5.333c-5.04,2.89-8.302,9.212-9.346,14.778
				C185.801,88.048,194.443,89.342,195.48,83.816L195.48,83.816z"/>
		</g>
		<path fill="#FDC8D4" d="M213.44,91.067c-0.034-0.63-0.21,0.025-3.775-0.644c-0.925,2.761-2.722,7.877-3.376,8.015
			c-0.898,0.189-8.986-8.574-9.699-10.313c-0.714-1.738,0.687-2.195,1.086-4.345c0.368-1.985,0.781-1.565-0.629-3.192
			c-1.692-1.952-2.964-2.661-1.843-0.246c0.79,1.703,0.615,1.992,0.615,1.992s-1.06,4.37-3.171,4.794
			c-2.424,0.487-0.323,1.653,0.538,3.143c0.86,1.489,10.421,18.956,15.988,12.428l4.954-7.265
			C214.126,94.683,213.472,91.65,213.44,91.067z"/>
		<path fill="#FDC8D4" d="M236.279,93.962c0,0,2.304,7.935,1.571,8.476c-0.735,0.54-16.383,2.437-20.668,2.51
			c-4.286,0.074-2.949-1.101-6.948-2.432c-3.999-1.332-2.521-0.085-1.687,0.617s-2.415,1.585-3.738,2.181
			c-1.322,0.596-3.001,2.587,1.227,3.374c4.228,0.788,8.332-1.704,14.113-0.753c5.78,0.951,22.333-1.171,22.333-1.171
			s2.461,0.012,1.097-7.223c-1.364-7.235-1.308-9.105-1.308-9.105"/>
	</g>
	<g>
		<ellipse opacity="0.1" fill="#29B2B2" enable-background="new    " cx="303.633" cy="190.322" rx="20.365" ry="4.152"/>
		<path fill="#333333" d="M296.07,114.445c0,0-8.051,27.029-6.713,38.246c1.336,11.215,9.93,29.014,9.93,29.014l7.981-0.666
			c0,0-3.774-17.79-6.601-26.448c0,0-1.382-4.128,1.5-12.407c2.883-8.279,2.766-10.997,2.766-10.997s-3.996,30.933,0.137,47.647
			l6.324-0.043c0,0,2.451-18.201,3.24-30.809c0.707-11.328,3.68-23.689,2.173-35.012"/>
		<path fill="#FDC8D4" d="M284.545,84.831c0,0-0.327-1.793,0.286-2.919c0.613-1.125,0.264-3.424-0.284-4.448
			c-0.547-1.024-1.326-2.969-1.566-1.985c-0.24,0.982,0.203,1.6,0.144,2.206c-0.059,0.605-3.155-1.542-3.762-1.955
			s-4.43,1.441,1.71,9.821"/>
		<path fill="#DDA8B9" d="M313.48,73.937c0,0-1.963,3.975-1.639,7.112c0.324,3.137-6.037,3.417-7.015,0.973
			c-0.978-2.443,0.429-0.548-0.189-4.736"/>
		<g>
			<g>
				<path fill="#333333" d="M262.805,71.359c-0.059-0.24-0.1-0.483-0.143-0.728c-0.064-0.385,0.062,0.583-0.023-0.29
					c-0.035-0.367-0.05-0.736-0.061-1.105c-0.053-1.787,0.269-3.419,1.318-5.033c2.408-3.701,8.352-2.708,11.121-0.199
					c3.988,3.62,3.648,10.543,1.393,14.987c-0.935,1.839-2.034,3.507-2.742,5.46c-0.98,2.708-0.619,5.728-0.041,8.47
					c0.779,3.7,6.412,2.09,5.637-1.585c-0.545-2.592-0.389-4.729,0.822-6.94c1.404-2.564,2.748-4.997,3.331-7.904
					c1.447-7.24-0.675-15.309-7.519-18.975c-5.817-3.118-13.264-1.513-17.109,3.82c-2.279,3.157-2.523,7.918-1.623,11.607
					C258.063,76.619,263.699,75.021,262.805,71.359L262.805,71.359z"/>
			</g>
			<circle fill="#333333" cx="279.586" cy="99.937" r="3.456"/>
		</g>
		<g>
			<path fill="#FDC8D4" d="M302.758,65.348c0,0-2.617,7.412-0.039,10.833s3.465,2.849,6.913,1.206
				c3.447-1.644,4.241-4.727,4.905-8.732c0.665-4.006-4.445-8.035-4.445-8.035"/>
			<path fill="#F24B11" d="M312.005,66.354c0,0-1.071-1.273-2.106-0.543c-1.035,0.73-3.174,1.324-4.186,0.952
				c-1.012-0.372-2.233,1.714-2.748,2.32c-0.514,0.605-4.869,2.4-4.078-2.715c0.791-5.114,3.473-3.646,4.072-5.967
				c0.596-2.321,4.463-3.541,6.434-2.219c1.972,1.321,2.729,0.276,4.315,0.943s2.601,1.279,3.017,3.205
				c0.413,1.926,1.615,3.836,0.41,6.825c-1.205,2.988-2.008,5.342-3.047,6.256c-1.04,0.914-1.458-0.154-0.875-1.998
				c0.584-1.844,0.596-2.161,0.299-3.148C313.216,69.276,313.879,68.85,312.005,66.354z"/>
		</g>
		<path fill="#5BBF6D" d="M319.805,97.931c0.237-3.914,1.621-12.673-1.109-13.659c-2.732-0.986-6.877-3.545-6.877-3.545
			c-4.426,3.258-7.121-0.696-7.121-0.696s-2.676,1.797-4.825,2.449c-1.228,0.373-1.812,0.824-2.089,1.143
			c-0.49,0.459-1.742,1.879-2.688,5.125c-1.203,4.123-3.17,8.449-3.17,8.449l-6.814-13.125l-4.461,1.635
			c0,0,6.526,22.811,11.896,20.319c1.203-0.559,2.205-1.169,3.048-1.805c-0.034,0.487-0.058,0.785-0.058,0.785
			c-0.197,11.408-2.236,18.105-2.236,18.105c15.34,3.846,24.797,0.582,24.797,0.582C316.958,116.252,319.564,101.846,319.805,97.931
			z"/>
		<path fill="#5BBF6D" d="M317.842,83.933c0,0,4.43,1.483,4.886,4.916c0.455,3.433,2.771,20.908-1.353,19.714"/>
		<path fill="#53A55E" d="M323.496,104.268c-0.108-0.664-4.099-6.908-7.229-13.949c-2.76-6.207-3.781-6.222-3.781-6.222
			l-4.123,0.985c0,0,3.91,19.997,10.441,25.529C318.804,110.611,325.05,113.768,323.496,104.268z"/>
		<path fill="#EFBDCA" d="M312.236,84.325c0,0,0.414-4.322-1.52-5.316c-1.936-0.994-2.942-2.157-4.327-2.041
			c-1.386,0.115-3.67,0.884-2.372,1.337c1.297,0.454,1.976-0.114,2.512,0.363c0.537,0.478,1.835,1.962,1.529,3.263
			c-0.306,1.299,0.172,1.685,1.42,2.934"/>
		<g>
			<path fill="#333333" d="M298.848,178.863c0,0,0.98,3.93,0.12,5.857c-0.859,1.929-6.068,6.211-5.455,8.762
				c0.612,2.551,5.493-0.326,8.62-2.895c3.126-2.568,3.721-3.756,4.943-4.5c1.222-0.742,0.42-3.312-3.154-9.891"/>
			<path fill="#333333" d="M305.668,173.629c0,0,0.261,6.157-0.361,7.629c-0.623,1.473-2.813,13.142,1.631,11.276
				c4.445-1.866,5.496-6.746,3.952-18.396"/>
		</g>
		<path fill="#53A55E" d="M298.564,92.607c0,0-3.227,8.861-3.061,13.842c0.164,4.982,0.818,8.906,3.48,7.879
			c2.663-1.027,0.654-5.932,0.561-9.342s-1.027-12.565-1.027-12.565"/>
	</g>
</g>
<g id="DESIGNED_BY_FREEPIK">
</g>
</svg>
