<?xml version="1.0" encoding="iso-8859-1"?>
<!-- Generator: Adobe Illustrator 19.0.0, SVG Export Plug-In . SVG Version: 6.00 Build 0)  -->
<svg version="1.1" id="Capa_1" xmlns="http://www.w3.org/2000/svg" xmlns:xlink="http://www.w3.org/1999/xlink" x="0px" y="0px"
	 viewBox="0 0 512 512" style="enable-background:new 0 0 512 512;" xml:space="preserve">
<path style="fill:#F44078;" d="M288.008,37.05L288.008,37.05c21.867-31.918,71.863-15.674,70.793,23.002l0,0
	c-0.754,27.256,26.101,46.768,51.79,37.628l0,0c36.452-12.969,67.351,29.56,43.752,60.22l0,0
	c-16.631,21.608-6.373,53.178,19.782,60.883l0,0c37.113,10.934,37.113,63.502,0,74.436l0,0
	c-26.155,7.705-36.413,39.276-19.782,60.883l0,0c23.599,30.66-7.3,73.189-43.752,60.22l0,0c-25.689-9.14-52.545,10.371-51.79,37.628
	l0,0c1.07,38.676-48.926,54.92-70.793,23.002l0,0c-15.411-22.494-48.606-22.494-64.016,0l0,0
	c-21.867,31.918-71.863,15.674-70.793-23.002l0,0c0.754-27.256-26.101-46.768-51.79-37.628l0,0
	c-36.452,12.969-67.351-29.56-43.752-60.22l0,0c16.631-21.608,6.373-53.178-19.782-60.883l0,0
	c-37.113-10.934-37.113-63.502,0-74.436l0,0c26.155-7.705,36.413-39.276,19.782-60.883l0,0c-23.599-30.66,7.3-73.189,43.752-60.22
	l0,0c25.689,9.14,52.545-10.371,51.79-37.628l0,0c-1.07-38.676,48.926-54.92,70.793-23.002l0,0
	C239.403,59.544,272.597,59.544,288.008,37.05z"/>
<path d="M476.963,209.153c-9.241-2.723-16.248-9.539-19.225-18.701c-2.977-9.162-1.314-18.796,4.562-26.43
	c13.534-17.583,13.851-40.544,0.809-58.495c-13.042-17.951-34.978-24.745-55.882-17.306c-9.076,3.23-18.751,1.834-26.546-3.829
	c-7.794-5.663-12.111-14.433-11.845-24.063c0.614-22.18-12.625-40.943-33.728-47.799c-21.101-6.856-42.841,0.541-55.382,18.846
	c-5.445,7.948-14.093,12.505-23.726,12.505c-9.634,0-18.281-4.558-23.726-12.506c-12.541-18.305-34.28-25.701-55.382-18.846
	c-21.102,6.857-34.342,25.619-33.728,47.8c0.267,9.629-4.05,18.4-11.844,24.062c-7.794,5.663-17.469,7.058-26.546,3.829
	c-20.905-7.437-42.84-0.645-55.882,17.306s-12.724,40.912,0.809,58.495c5.876,7.635,7.539,17.268,4.562,26.43
	s-9.984,15.978-19.225,18.701C13.753,215.423,0,233.812,0,256c0,22.189,13.752,40.578,35.037,46.849
	c9.241,2.723,16.248,9.538,19.225,18.701s1.315,18.795-4.561,26.429c-13.534,17.583-13.852,40.544-0.81,58.495
	c13.043,17.951,34.977,24.742,55.883,17.306c9.077-3.229,18.752-1.834,26.545,3.829c7.794,5.662,12.111,14.433,11.845,24.063
	c-0.614,22.18,12.626,40.942,33.728,47.799c5.228,1.699,10.494,2.523,15.65,2.522c15.658,0,30.298-7.598,39.732-21.368
	c5.445-7.947,14.093-12.505,23.726-12.505c9.634,0,18.282,4.558,23.727,12.505c12.541,18.305,34.279,25.702,55.382,18.846
	c21.102-6.857,34.342-25.619,33.728-47.799c-0.266-9.63,4.051-18.401,11.845-24.064c7.794-5.661,17.467-7.059,26.546-3.828
	c20.907,7.437,42.84,0.645,55.882-17.306s12.725-40.912-0.81-58.495c-5.876-7.634-7.538-17.268-4.561-26.43
	s9.984-15.978,19.225-18.701C498.248,296.578,512,278.19,512,256C512,233.812,498.247,215.423,476.963,209.153z M471.289,283.589
	c-15.462,4.555-27.666,16.427-32.647,31.756s-2.085,32.107,7.747,44.881c9.673,12.567,6.588,26.034,0.476,34.447
	c-6.111,8.413-17.967,15.507-32.908,10.191c-15.187-5.403-32.037-2.974-45.077,6.501c-13.04,9.474-20.559,24.75-20.114,40.863
	c0.439,15.852-9.972,24.934-19.861,28.148c-9.892,3.214-23.651,1.985-32.614-11.098c-9.11-13.297-24.172-21.236-40.29-21.236
	s-31.18,7.939-40.29,21.236c-8.963,13.082-22.722,14.312-32.614,11.098c-9.889-3.213-20.301-12.295-19.862-28.148
	c0.446-16.113-7.073-31.388-20.113-40.862c-8.462-6.149-18.529-9.33-28.704-9.33c-5.505,0-11.042,0.931-16.374,2.828
	c-14.941,5.316-26.796-1.779-32.908-10.191c-6.112-8.413-9.197-21.879,0.477-34.447c9.831-12.773,12.727-29.551,7.746-44.881
	c-4.981-15.329-17.185-27.201-32.647-31.755c-15.213-4.482-20.633-17.19-20.633-27.588c0-10.398,5.42-23.106,20.632-27.588
	c15.462-4.555,27.666-16.426,32.647-31.755s2.085-32.108-7.746-44.881c-9.673-12.567-6.589-26.034-0.476-34.447
	c6.111-8.413,17.967-15.506,32.908-10.191c15.185,5.403,32.037,2.973,45.078-6.502c13.04-9.475,20.559-24.75,20.113-40.862
	c-0.439-15.853,9.973-24.935,19.862-28.148c9.888-3.212,23.65-1.985,32.614,11.098c9.11,13.297,24.172,21.236,40.29,21.236
	c16.119,0,31.18-7.939,40.29-21.236l0,0c8.962-13.083,22.723-14.311,32.613-11.098s20.301,12.295,19.862,28.149
	c-0.446,16.112,7.074,31.388,20.113,40.862c13.041,9.474,29.891,11.905,45.078,6.501c14.942-5.316,26.796,1.779,32.908,10.192
	c6.112,8.412,9.197,21.879-0.476,34.447c-9.831,12.773-12.727,29.551-7.746,44.88c4.981,15.33,17.185,27.201,32.647,31.756
	c15.212,4.481,20.632,17.189,20.632,27.588C491.922,266.402,486.501,279.107,471.289,283.589z"/>
<path d="M113.563,223.938c4.335,0,8.335-2.83,9.624-7.2c8.282-28.061,25.754-53.313,49.198-71.104
	c24.215-18.376,53.128-28.089,83.615-28.089c5.545,0,10.039-4.495,10.039-10.039c0-5.545-4.495-10.039-10.039-10.039
	c-34.906,0-68.017,11.125-95.753,32.173c-26.831,20.361-46.832,49.275-56.317,81.415c-1.57,5.318,1.469,10.901,6.787,12.47
	C111.666,223.805,112.622,223.938,113.563,223.938z"/>
<path d="M378.089,341.144c-4.322-3.474-10.642-2.787-14.114,1.535c-26.451,32.906-65.807,51.778-107.975,51.778
	c-5.545,0-10.039,4.495-10.039,10.039s4.495,10.039,10.039,10.039c48.282,0,93.341-21.606,123.624-59.278
	C383.098,350.937,382.411,344.617,378.089,341.144z"/>
<circle cx="391.54" cy="318.411" r="10.206"/>
<path d="M221.764,348.962l-64.568-19.569l42.068,42.069c2.826,2.826,0.838,7.744-2.512,11.093
	c-3.453,3.453-8.267,5.337-11.092,2.512l-67.918-67.917c-2.93-2.93-0.941-7.64,2.512-11.093c4.918-4.918,7.953-5.86,17.372-2.93
	l59.231,18.837l-42.069-42.069c-2.93-2.93-0.837-7.535,2.616-10.988c3.349-3.349,8.059-5.545,10.988-2.616l68.021,68.022
	c2.826,2.826,0.838,7.744-2.512,11.092C230.659,348.648,226.788,350.428,221.764,348.962z"/>
<path d="M223.231,268.799l15.906-15.906c2.721-2.721,6.906-1.674,9.732,1.151c2.407,2.407,3.872,6.593,0.941,9.523l-15.906,15.906
	l21.035,21.034l29.615-29.615c2.721-2.721,7.115-1.465,10.359,1.779c2.826,2.826,4.5,7.221,1.57,10.151l-37.255,37.255
	c-3.034,3.035-7.43,4.5-10.255,1.674l-67.918-67.917c-2.825-2.826-1.36-7.221,1.674-10.256l37.256-37.255
	c2.93-2.93,7.325-1.255,10.15,1.57c3.244,3.244,4.5,7.639,1.779,10.36l-29.615,29.615L223.231,268.799z"/>
<path d="M369.008,202.347c2.092,4.186-0.314,9.522-4.291,13.5c-3.871,3.872-9.418,6.488-13.291,4.082l-34.952-21.558l21.453,35.058
	c2.407,3.872-0.209,9.418-4.081,13.29c-3.977,3.977-9.419,6.488-13.5,4.291l-86.545-45.104c-0.418-0.209-1.046-0.627-1.465-1.046
	c-3.035-3.035-0.628-10.256,3.244-14.128c2.094-2.093,4.709-3.244,7.221-1.779l73.254,40.186l-27.522-45.313
	c-1.987-3.245-0.104-7.43,2.931-10.465c2.93-2.93,7.116-4.814,10.359-2.826l45.313,27.523l-40.185-73.254
	c-1.465-2.512-0.314-5.128,1.778-7.221c3.872-3.872,11.093-6.279,14.128-3.244c0.419,0.419,0.838,1.046,1.047,1.465L369.008,202.347
	z"/>
<g>
</g>
<g>
</g>
<g>
</g>
<g>
</g>
<g>
</g>
<g>
</g>
<g>
</g>
<g>
</g>
<g>
</g>
<g>
</g>
<g>
</g>
<g>
</g>
<g>
</g>
<g>
</g>
<g>
</g>
</svg>
